<?xml version="1.0" encoding="UTF-8"?>
<svg xmlns="http://www.w3.org/2000/svg" version="1.1" viewBox="0 0 2834.65 2834.65">
  <defs>
    <style>
      .cls-1 {
        fill: none;
      }

      .cls-2 {
        fill: #231f20;
      }

      .cls-3 {
        fill: #a7812e;
      }

      .cls-4 {
        fill: #fff;
      }
    </style>
  </defs>
  <!-- Generator: Adobe Illustrator 28.7.10, SVG Export Plug-In . SVG Version: 1.2.0 Build 236)  -->
  <g>
    <g id="Layer_1">
      <g>
        <path class="cls-4" d="M2440.22,253.09c0-18.16-10.1-34.45-26.36-42.52l-270.76-134.33c-6.52-3.24-13.82-4.95-21.1-4.95h-27.21c-3.98,0-7.85.5-11.55,1.43-2.61-.45-5.29-.69-8.02-.69h-28.68c-7.54,0-15.07,1.83-21.78,5.29l-260.17,134.36c-15.85,8.19-25.69,24.36-25.67,42.21l.08,79.04c0,1.04.04,2.06.11,3.09-.06.99-.1,1.98-.1,2.98l.07,76.95c0,1.07.04,2.14.12,3.19-.05.88-.11,1.76-.11,2.65l.07,77.23c0,1.04.04,2.08.11,3.12-.06,1-.1,2.01-.1,3.03l.07,76.95c0,1.04.04,2.07.11,3.1-.06,1-.1,2.01-.1,3.03l.07,76.98c0,1.02.04,2.04.11,3.05-.06.99-.1,1.98-.1,2.98l.07,77.14c0,1.02.04,2.03.11,3.04-.06.99-.1,1.98-.1,2.99l.07,77.16c0,1.06.05,2.11.12,3.16-.07,1.03-.11,2.06-.11,3.11l.07,76.97c0,1.1.05,2.19.13,3.28-.07,1.09-.13,2.19-.12,3.3v9.69c-15.34-24.93-36.77-46.16-62.88-61.23l-548.61-316.74c-7.21-4.16-15.41-6.36-23.73-6.36-7.74,0-15.44,1.92-22.28,5.56l-4.89,2.6-591.39,315.49c-54.27,28.95-87.97,85.15-87.97,146.66v151.34c0,8.78,2.39,17.27,6.84,24.62-6.57,8.31-10.22,18.66-10.22,29.43v1540.89h2045.8v-1013.34c0-.28-.02-.55-.02-.83,0-.27.02-.55.02-.82v-82.37c0-.31-.02-.62-.02-.93,0-.31.02-.61.02-.92v-82.12c0-.36-.02-.71-.03-1.07,0-.33.03-.67.03-1v-81.87c0-.4-.02-.79-.03-1.19,0-.37.03-.73.03-1.1v-81.58c0-.44-.02-.88-.03-1.32,0-.4.03-.8.03-1.21v-81.3c0-.48-.02-.96-.04-1.44.01-.44.04-.87.04-1.31v-81.04c0-.53-.02-1.05-.04-1.57.01-.47.04-.94.04-1.42v-80.78c0-.57-.02-1.14-.04-1.71.02-.51.04-1.01.04-1.52v-80.48c0-.63-.02-1.25-.04-1.88.02-.53.04-1.06.04-1.6v-80.19c0-.68-.02-1.35-.05-2.02.02-.57.05-1.13.05-1.7v-79.91c0-.72-.02-1.44-.05-2.16.02-.6.05-1.2.05-1.81v-79.64c0-.76-.02-1.52-.05-2.27.03-.65.05-1.29.05-1.95v-79.33c0-.79-.02-1.58-.06-2.37.03-.7.06-1.41.06-2.11v-79.02c0-.82-.03-1.63-.07-2.44.04-.76.07-1.53.07-2.3v-78.7c0-.86-.03-1.71-.07-2.56.04-.81.07-1.63.07-2.45v-78.44c0-.89-.03-1.77-.08-2.64.05-.88.08-1.75.08-2.64v-69.85c0-.92-.04-1.83-.09-2.74.06-.95.09-1.9.09-2.86v-76.09c0-.89-.07-1.77-.12-2.66.07-1.08.12-2.16.12-3.24v-78.47Z"/>
        <g>
          <g>
            <path class="cls-3" d="M2053.26,2137.94v162.15H543.22c-55.97,0-101.34-45.37-101.34-101.34v-976.29h1074.25v-156.44l-415.68-239.98-452.5,241.4v100.97h-202.69v-151.34c0-43.86,24.17-84.14,62.86-104.78l139.83-74.6,451.56-240.9,4.83-2.57,25.27,14.59,401.7,231.91,121.65,70.24c40.76,23.54,65.87,67.03,65.87,114.1v359.55H678.35c-41.05,0-74.32,33.27-74.32,74.32v604.69c0,41.05,33.27,74.32,74.32,74.32h1374.91Z"/>
            <polygon class="cls-3" points="1438.43 1171.79 735.78 1171.79 735.78 1094.09 1087.11 918.42 1438.43 1094.09 1438.43 1171.79"/>
            <path class="cls-3" d="M1787.88,1833.99l.05,70.85h-491.38v-64.17h415.51v-241.41c0-83.11-67.36-150.47-150.47-150.47h-427.21v229.71h-50.68v-229.71h-219.44c-84.01,0-152.16,68.15-152.16,152.16v303.89h-67.55v81.29c0,44.65,36.2,80.88,80.88,80.88h148.84v-456.05h47.29v229.71h212.81v226.33l915.48-.74v-320.02l-262.07,5.94.08,81.8ZM1296.56,1610.95h253.35v67.55h-253.35v-67.55Z"/>
            <polygon class="cls-3" points="1787.8 1749.01 2049.84 1743.07 2049.87 1744.6 2049.87 1657.15 1787.72 1669.08 1787.8 1749.01"/>
            <polygon class="cls-3" points="1786.86 754.39 1786.93 831.56 2048.76 757.67 2049.87 761.6 2049.87 676.71 1787.82 757.12 1786.86 754.39"/>
            <polygon class="cls-3" points="1787.01 921.36 1787.09 998.06 2049.05 936.86 2049.87 940.4 2049.87 855.01 1787.36 922.68 1787.01 921.36"/>
            <polygon class="cls-3" points="1786.94 837.81 1787.01 914.8 2048.91 847.28 2049.87 851.01 2049.87 765.86 1787.56 839.89 1786.94 837.81"/>
            <polygon class="cls-3" points="1787.09 1005.02 1787.17 1081.37 2049.17 1026.45 2049.87 1029.78 2049.87 944.13 1787.2 1005.49 1787.09 1005.02"/>
            <polygon class="cls-3" points="1787.4 1331.46 2049.5 1295.23 2049.87 1297.92 2049.87 1211.54 1787.33 1254.05 1787.4 1331.46"/>
            <polygon class="cls-3" points="1787.32 1248.08 2049.4 1205.64 2049.87 1208.54 2049.87 1122.4 1787.25 1171.17 1787.32 1248.08"/>
            <polygon class="cls-3" points="1787.56 1498.38 2049.67 1474.38 2049.87 1476.63 2049.87 1389.81 1787.49 1419.94 1787.56 1498.38"/>
            <polygon class="cls-3" points="1787.24 1164.7 2049.29 1116.04 2049.87 1119.16 2049.87 1033.27 1787.17 1088.33 1787.24 1164.7"/>
            <polygon class="cls-3" points="1787.64 1581.89 2049.74 1563.96 2049.87 1565.98 2049.87 1478.93 1787.56 1502.94 1787.64 1581.89"/>
            <polygon class="cls-3" points="1787.72 1665.45 2049.79 1653.52 2049.87 1655.3 2049.87 1568.05 1787.64 1586.01 1787.72 1665.45"/>
            <polygon class="cls-3" points="1787.48 1414.92 2049.59 1384.81 2049.87 1387.28 2049.87 1300.69 1787.41 1336.99 1787.48 1414.92"/>
            <polygon class="cls-3" points="1786.89 422.38 1786.54 421.74 1786.62 498.98 2048.09 399.24 2049.87 403.91 2049.87 320.09 1788.51 426.39 1786.89 422.38"/>
            <polygon class="cls-3" points="1786.62 505.12 1786.69 582.09 2048.27 488.86 2049.87 493.35 2049.87 409.26 1787.98 509.15 1786.62 505.12"/>
            <polygon class="cls-3" points="1786.7 588.2 1786.77 665.2 2048.44 578.45 2049.87 582.75 2049.87 498.41 1787.89 591.78 1786.7 588.2"/>
            <polygon class="cls-3" points="1786.46 338.95 1786.54 415.91 2047.91 309.61 2049.87 314.44 2049.87 232.67 2052.25 229.9 1788.14 344 1786.46 338.95"/>
            <polygon class="cls-3" points="2075.22 203.23 2075.22 119.49 2046.55 119.49 1786.38 253.85 1786.46 332.88 2057.25 215.86 2058.11 215 2060.39 214.98 2060.41 220.43 2060.42 220.43 2075.22 203.23"/>
            <polygon class="cls-3" points="1786.78 671.22 1786.85 748.37 2048.61 668.07 2049.87 672.2 2049.87 587.55 1787.92 674.4 1786.78 671.22"/>
            <polygon class="cls-3" points="2118.84 1031.62 2118.84 1117.62 2119.36 1114.48 2392.77 1159.59 2392.77 1079.1 2392.15 1082.45 2118.84 1031.62"/>
            <polygon class="cls-3" points="2118.84 1120.84 2118.84 1207.14 2119.26 1204.21 2392.77 1243.59 2392.77 1162.82 2392.25 1165.95 2118.84 1120.84"/>
            <polygon class="cls-3" points="2392.77 413.55 2392.77 337.46 2390.69 342.49 2117.08 229.78 2118.84 231.93 2118.84 313.77 2120.72 308.89 2392.77 413.55"/>
            <polygon class="cls-3" points="2118.84 942.39 2118.84 1028.15 2119.46 1024.8 2392.77 1075.63 2392.77 995.44 2392.03 999 2118.84 942.39"/>
            <polygon class="cls-3" points="2392.77 331.56 2392.77 253.08 2122 118.75 2094.8 118.75 2094.8 202.49 2109.81 220.89 2111.89 215.85 2392.77 331.56"/>
            <polygon class="cls-3" points="2118.84 1210.12 2118.84 1296.66 2119.17 1293.95 2392.77 1327.63 2392.77 1246.59 2392.35 1249.5 2118.84 1210.12"/>
            <polygon class="cls-3" points="2118.84 1388.68 2118.84 1475.7 2119.02 1473.43 2392.77 1495.79 2392.77 1414.21 2392.51 1416.68 2118.84 1388.68"/>
            <polygon class="cls-3" points="2118.84 1477.97 2118.84 1565.28 2118.96 1563.22 2392.77 1579.95 2392.77 1498.09 2392.58 1500.33 2118.84 1477.97"/>
            <polygon class="cls-3" points="2118.84 1656.63 2118.84 1744.42 2118.87 1742.8 2392.77 1748.36 2392.77 1665.99 2392.69 1667.78 2118.84 1656.63"/>
            <polygon class="cls-3" points="2118.84 853.21 2118.84 938.69 2119.58 935.12 2392.77 991.73 2392.77 911.81 2391.91 915.57 2118.84 853.21"/>
            <path class="cls-3" d="M2118.84,1745.98v554.12h177.81c53.07,0,96.12-45.39,96.12-101.35v-364.76h-273.93,273.93v-83.97l-.03,1.52-273.9-5.56Z"/>
            <polygon class="cls-3" points="2118.84 1299.4 2118.84 1386.18 2119.09 1383.69 2392.77 1411.68 2392.77 1330.38 2392.44 1333.08 2118.84 1299.4"/>
            <polygon class="cls-3" points="2390.89 424.03 2118.84 319.36 2118.84 402.22 2120.43 397.48 2392.77 489 2392.77 419.15 2390.89 424.03"/>
            <polygon class="cls-3" points="2118.84 407.49 2118.84 491.58 2120.27 487.03 2392.77 572.71 2392.77 494.28 2391.18 499.01 2118.84 407.49"/>
            <polygon class="cls-3" points="2118.84 1567.32 2118.84 1654.83 2118.91 1653 2392.77 1664.14 2392.77 1582.02 2392.64 1584.04 2118.84 1567.32"/>
            <polygon class="cls-3" points="2118.84 496.58 2118.84 580.96 2120.12 576.6 2392.77 656.42 2392.77 577.72 2391.34 582.27 2118.84 496.58"/>
            <polygon class="cls-3" points="2118.84 585.69 2118.84 670.37 2119.97 666.2 2392.77 740.18 2392.77 661.16 2391.49 665.52 2118.84 585.69"/>
            <polygon class="cls-3" points="2118.84 674.84 2118.84 759.81 2119.83 755.84 2392.77 823.99 2392.77 744.66 2391.64 748.82 2118.84 674.84"/>
            <polygon class="cls-3" points="2118.84 764.02 2118.84 849.25 2119.7 845.48 2392.77 907.84 2392.77 828.21 2391.78 832.17 2118.84 764.02"/>
          </g>
          <g>
            <path class="cls-2" d="M542.5,2570.96c.89-2.18,1.3-4.51,1.23-6.97-.13-2.47-.65-4.74-1.57-6.83-.92-2.09-2.13-3.89-3.65-5.41-1.52-1.52-3.29-2.7-5.31-3.56-2.02-.85-4.21-1.28-6.55-1.28s-4.4.41-6.36,1.23c-1.96.82-3.7,1.94-5.22,3.37-1.52,1.42-2.75,3.11-3.7,5.08-.95,1.96-1.55,4.05-1.8,6.26-.25,2.66.03,5.14.85,7.45.82,2.31,1.99,4.32,3.51,6.02,1.52,1.71,3.35,3.05,5.5,4.03,2.15.98,4.43,1.47,6.83,1.47,2.4.06,4.68-.38,6.83-1.33,2.15-.95,4.03-2.23,5.64-3.84,1.61-1.61,2.86-3.51,3.75-5.69Z"/>
            <path class="cls-2" d="M630.06,2531.26h29.88v-107.58h-44.3c-9.3-.06-16.43,1.8-21.39,5.6-4.96,3.79-8.14,10.62-9.53,20.49v52.08h-89.27l-8.73-1.99c-1.52-.57-2.88-1.28-4.08-2.13-1.2-.85-2.47-1.88-3.79-3.08-.89-.89-1.74-2.04-2.56-3.46-.82-1.42-1.49-2.89-1.99-4.41-1.33-2.85-1.99-6.26-1.99-10.25l1.99-10.25c.51-1.52,1.17-2.96,1.99-4.32.82-1.36,1.68-2.48,2.56-3.37.89-1.2,2.04-2.23,3.46-3.08,1.42-.85,2.89-1.57,4.41-2.13l8.73-1.71v-29.31c-3.86,0-7.42.33-10.67,1-3.26.66-6.53,1.66-9.82,2.99-3.29,1.45-6.34,3.05-9.15,4.79-2.81,1.74-5.58,3.62-8.3,5.64-2.34,2.34-4.38,4.98-6.12,7.92-1.74,2.94-3.34,6.06-4.79,9.34-1.26,3.23-2.2,6.59-2.8,10.1-.6,3.51-.9,7.42-.9,11.72-.25,3.79-.09,7.48.47,11.05.57,3.57,1.64,7.16,3.23,10.77,1.45,3.29,3.05,6.37,4.79,9.25,1.74,2.88,3.78,5.68,6.12,8.4,2.72,2.34,5.49,4.43,8.3,6.26,2.81,1.83,5.87,3.48,9.15,4.93,3.29,1.39,6.56,2.53,9.82,3.42,3.26.89,6.81,1.33,10.67,1.33h119.15v-66.5c-.06-4.55,1.11-7.95,3.51-10.2,2.4-2.25,6.39-3.05,11.95-2.42v79.12Z"/>
            <path class="cls-2" d="M557.01,2578.88c2.47,1.83,5.6,2.88,9.39,3.13,2.4.06,4.68-.38,6.83-1.33,2.15-.95,4.03-2.23,5.64-3.84,1.61-1.61,2.86-3.51,3.75-5.69.89-2.18,1.3-4.51,1.23-6.97-.13-2.47-.65-4.74-1.57-6.83-.92-2.09-2.13-3.89-3.65-5.41-1.52-1.52-3.29-2.7-5.31-3.56-2.02-.85-4.21-1.28-6.55-1.28-3.6,0-6.64.82-9.11,2.47s-4.35,3.72-5.64,6.21c-1.3,2.5-1.99,5.23-2.09,8.21-.09,2.97.44,5.74,1.61,8.3,1.17,2.56,2.99,4.76,5.45,6.59Z"/>
            <path class="cls-2" d="M722.93,2491.46c.63-8,.51-15.83-.38-23.48-.57-8.22-1.74-16.05-3.51-23.48-1.77-7.43-4.17-14.72-7.21-21.87h-33.39c3.29,6.51,6.07,13.2,8.35,20.06,2.28,6.86,3.86,13.83,4.74,20.92.89,7.46,1.17,14.91.85,22.34-.32,7.43-1.39,14.97-3.23,22.63l-2.47,10.53-3.7,9.58-4.55,8.25-5.41,8.54-7.87,9.58-9.39,11.1,24.38,18.59,15.08-17.27,11.1-17.17,7.21-17.27,5.5-17.46c1.96-8.1,3.26-16.14,3.89-24.14Z"/>
            <path class="cls-2" d="M819.32,2403.95c1.52,1.71,3.35,3.05,5.5,4.03,2.15.98,4.43,1.47,6.83,1.47,2.4.06,4.68-.38,6.83-1.33,2.15-.95,4.03-2.23,5.64-3.84,1.61-1.61,2.86-3.51,3.75-5.69.89-2.18,1.3-4.51,1.23-6.97-.13-2.47-.65-4.74-1.57-6.83-.92-2.09-2.13-3.89-3.65-5.41-1.52-1.52-3.29-2.7-5.31-3.56-2.02-.85-4.21-1.28-6.55-1.28s-4.4.41-6.36,1.23-3.7,1.94-5.22,3.37c-1.52,1.42-2.75,3.11-3.7,5.08-.95,1.96-1.55,4.05-1.8,6.26-.25,2.66.03,5.14.85,7.45.82,2.31,1.99,4.32,3.51,6.02Z"/>
            <path class="cls-2" d="M859.44,2404.14c1.52,1.71,3.35,3.05,5.5,4.03s4.43,1.47,6.83,1.47c2.4.06,4.68-.38,6.83-1.33,2.15-.95,4.03-2.23,5.64-3.84,1.61-1.61,2.86-3.51,3.75-5.69.89-2.18,1.3-4.51,1.23-6.97-.13-2.47-.65-4.74-1.57-6.83-.92-2.09-2.13-3.89-3.65-5.41-1.52-1.52-3.29-2.7-5.31-3.56-2.02-.85-4.21-1.28-6.55-1.28s-4.4.41-6.36,1.23c-1.96.82-3.7,1.94-5.22,3.37-1.52,1.42-2.75,3.11-3.7,5.08-.95,1.96-1.55,4.05-1.8,6.26-.25,2.66.03,5.14.85,7.45.82,2.31,1.99,4.32,3.51,6.02Z"/>
            <path class="cls-2" d="M1042.82,2501.94h-10.52c.11,0,.16-.09.27-.09h-47.53l-14.23-2.85-10.44-6.55-3.04-5.12-2.09-4.36-1.04-4.55v-4.17l1.8-9.77,5.03-8.82,8.06-5.31,9.39-2.37c2.21,0,4.47.21,6.78.62,2.31.41,4.51,1,6.59,1.76,2.09.89,3.92,2.01,5.5,3.37,1.58,1.36,2.88,2.86,3.89,4.51l3.7,4.93,18.69-24.76-2.47-3.32c-2.72-2.72-5.61-5.11-8.68-7.16-3.07-2.06-6.53-3.91-10.39-5.55-3.48-1.2-7.16-2.15-11.05-2.85-3.89-.7-7.86-1.04-11.91-1.04-3.6,0-7.24.35-10.91,1.04-3.67.7-7.3,1.64-10.91,2.85-3.79,1.64-7.21,3.48-10.25,5.5-3.04,2.02-5.91,4.24-8.63,6.64-2.53,2.72-4.82,5.52-6.88,8.4-2.06,2.88-3.84,5.96-5.36,9.25-1.45,3.79-2.56,7.49-3.32,11.1-.76,3.6-1.14,7.27-1.14,11,0,2.4.14,4.74.43,7.02.28,2.28.65,4.52,1.09,6.74l4.93,13.85h-24.57c.32-.7.65-1.41,1-2.13.35-.73.68-1.47,1-2.23,1.52-3.29,2.59-6.7,3.23-10.25.63-3.54.95-7.11.95-10.72,0-3.98-.32-7.76-.95-11.34-.63-3.57-1.71-7.07-3.23-10.48-1.52-3.29-3.32-6.44-5.41-9.44-2.09-3-4.27-5.9-6.55-8.68-2.53-2.53-5.19-4.7-7.97-6.5-2.78-1.8-5.88-3.49-9.3-5.08-3.29-1.39-6.72-2.39-10.29-2.99-3.57-.6-7.35-.9-11.34-.9s-7.76.3-11.34.9c-3.57.6-7.07,1.6-10.48,2.99-3.29,1.58-6.32,3.34-9.11,5.27-2.78,1.93-5.57,4.03-8.35,6.31-2.4,2.78-4.51,5.68-6.31,8.68-1.8,3-3.46,6.15-4.98,9.44-1.33,3.42-2.32,6.81-2.99,10.2-.66,3.38-1,7.04-1,10.96,0,2.4.14,4.79.43,7.16.28,2.37.59,4.57.9,6.59l4.36,12.24h-30.45v-123.7h-29.41v153.11h41.88c.15,0,.18.09.33.09h284.41v-150.74h-29.88v121.33ZM876.95,2486.86c-1.23,2.97-2.93,5.57-5.08,7.78-2.15,2.21-4.7,3.98-7.64,5.31-2.94,1.33-6.06,2.02-9.34,2.09-3.42.06-6.62-.54-9.63-1.8-3-1.26-5.64-3-7.92-5.22-2.28-2.21-4.06-4.84-5.36-7.87-1.3-3.04-1.88-6.29-1.76-9.77.06-3.29.76-6.37,2.09-9.25,1.33-2.88,3.08-5.38,5.27-7.49,2.18-2.12,4.74-3.78,7.68-4.98,2.94-1.2,6.06-1.8,9.34-1.8s6.39.62,9.3,1.85c2.91,1.23,5.45,2.91,7.64,5.03,2.18,2.12,3.91,4.62,5.17,7.49,1.26,2.88,1.93,5.96,1.99,9.25.06,3.29-.52,6.42-1.76,9.39Z"/>
            <rect class="cls-2" x="1099.83" y="2378.24" width="29.5" height="153.02"/>
            <path class="cls-2" d="M1239.76,2580.25c2.15.98,4.43,1.47,6.83,1.47,2.4.06,4.68-.38,6.83-1.33,2.15-.95,4.03-2.23,5.64-3.84,1.61-1.61,2.86-3.51,3.75-5.69.89-2.18,1.3-4.51,1.23-6.97-.13-2.47-.65-4.74-1.57-6.83-.92-2.09-2.13-3.89-3.65-5.41-1.52-1.52-3.29-2.7-5.31-3.56-2.02-.85-4.21-1.28-6.55-1.28s-4.4.41-6.36,1.23-3.7,1.94-5.22,3.37-2.75,3.11-3.7,5.08c-.95,1.96-1.55,4.05-1.8,6.26-.25,2.66.03,5.14.85,7.45.82,2.31,1.99,4.32,3.51,6.02,1.52,1.71,3.35,3.05,5.5,4.03Z"/>
            <path class="cls-2" d="M1278.08,2501.94h-48.42c.14,0,.18-.09.33-.09h-17.93c1.01-6.83,1.6-13.66,1.76-20.49.16-6.83-.21-13.53-1.09-20.11-.89-6.77-2.12-13.33-3.7-19.68-1.58-6.36-3.76-12.66-6.55-18.93h-33.39c1.83,3.23,3.49,6.56,4.98,10.01,1.49,3.45,2.61,6.88,3.37,10.29l4.74,21.34c.32,3.6.59,7.18.81,10.72.22,3.54.17,7.18-.14,10.91,0,3.73-.28,7.46-.85,11.19-.57,3.73-1.3,7.56-2.18,11.48l-2.85,10.53.09.09-3.51,9.58-4.74,8.54-6.17,8.44-7.21,9.58-9.58,11.38,24.67,19.45,12.05-13.95,9.58-13.76,7.4-13.38,5.98-13.76h102.27v-109.76h-29.69v80.35Z"/>
            <path class="cls-2" d="M1277.33,2578.78c2.47,1.83,5.6,2.88,9.39,3.13,2.4.06,4.68-.38,6.83-1.33,2.15-.95,4.03-2.23,5.64-3.84s2.86-3.51,3.75-5.69c.89-2.18,1.3-4.51,1.23-6.97-.13-2.47-.65-4.74-1.57-6.83-.92-2.09-2.13-3.89-3.65-5.41-1.52-1.52-3.29-2.7-5.31-3.56-2.02-.85-4.21-1.28-6.55-1.28-3.6,0-6.64.82-9.11,2.47-2.47,1.64-4.35,3.72-5.64,6.21-1.3,2.5-1.99,5.23-2.09,8.21-.09,2.97.44,5.74,1.61,8.3,1.17,2.56,2.99,4.76,5.45,6.59Z"/>
            <path class="cls-2" d="M1689.23,2403.66c1.52,1.71,3.35,3.05,5.5,4.03,2.15.98,4.43,1.47,6.83,1.47,2.4.06,4.68-.38,6.83-1.33,2.15-.95,4.03-2.23,5.64-3.84,1.61-1.61,2.86-3.51,3.75-5.69.89-2.18,1.3-4.51,1.23-6.97-.13-2.47-.65-4.74-1.57-6.83-.92-2.09-2.13-3.89-3.65-5.41-1.52-1.52-3.29-2.7-5.31-3.56-2.02-.85-4.21-1.28-6.55-1.28s-4.4.41-6.36,1.23c-1.96.82-3.7,1.94-5.22,3.37-1.52,1.42-2.75,3.11-3.7,5.08-.95,1.96-1.55,4.05-1.8,6.26-.25,2.66.03,5.14.85,7.45.82,2.31,1.99,4.32,3.51,6.02Z"/>
            <path class="cls-2" d="M1649.1,2403.47c1.52,1.71,3.35,3.05,5.5,4.03,2.15.98,4.43,1.47,6.83,1.47,2.4.06,4.68-.38,6.83-1.33,2.15-.95,4.03-2.23,5.64-3.84,1.61-1.61,2.86-3.51,3.75-5.69.89-2.18,1.3-4.51,1.23-6.97-.13-2.47-.65-4.74-1.57-6.83-.92-2.09-2.13-3.89-3.65-5.41-1.52-1.52-3.29-2.7-5.31-3.56-2.02-.85-4.21-1.28-6.55-1.28s-4.4.41-6.36,1.23c-1.96.82-3.7,1.94-5.22,3.37s-2.75,3.11-3.7,5.08c-.95,1.96-1.55,4.05-1.8,6.26-.25,2.66.03,5.14.85,7.45s1.99,4.32,3.51,6.02Z"/>
            <path class="cls-2" d="M1770.63,2531.35h45.35v-150.74h-29.88v121.33h-10.55c.28-.02.47-.09.77-.09h-13.76v-122h-29.31v122h-14.99c-.11,0-.15.09-.26.09h-19.19v-79.59h-29.41v79.59h-20.93c.15,0,.19-.09.35-.09h-13.28c-.25-4.81-.89-9.64-1.9-14.51-1.01-4.87-2.32-9.55-3.94-14.04-1.61-4.49-3.45-8.85-5.5-13.09-2.06-4.24-4.55-8.13-7.49-11.67-2.94-3.54-6.2-6.93-9.77-10.15-3.57-3.23-7.51-6.1-11.81-8.63-4.3-2.53-8.74-4.57-13.33-6.12-4.59-1.55-9.66-2.83-15.23-3.84-1.71-.76-5.68-1.22-11.91-1.38-6.23-.16-11.16.11-14.8.81-3.64.7-7.04,1.6-10.2,2.7-3.16,1.11-6.06,2.23-8.68,3.37-2.62,1.14-5.79,2.91-9.49,5.31-3.7,2.4-6.44,4.49-8.21,6.26v-58.53h-29.88v115.45l-2.66,6.07-6.07,1.99h-19.54l1.14-19.64-1.14-15.08c-.32-3.73-1.11-7.29-2.37-10.67-1.26-3.38-2.72-6.59-4.36-9.63-1.52-2.85-3.24-5.45-5.17-7.83-1.93-2.37-4-4.57-6.21-6.59-2.4-2.28-5.09-4.25-8.06-5.93-2.97-1.68-6.32-2.96-10.06-3.84l-18.78-2.66h-1.71l-15.27,1.99-13.95,5.88-10.91,8.54-8.73,11.1c-1.2,2.09-2.28,4.22-3.23,6.4-.95,2.18-1.77,4.47-2.47,6.88l-2.18,14.89c0,4.49.4,8.52,1.19,12.1.79,3.57,2.01,7.16,3.65,10.77,1.2,3.73,2.8,7.07,4.79,10.01,1.99,2.94,4.54,5.8,7.64,8.59,2.21,2.28,4.74,4.25,7.59,5.93,2.85,1.68,5.98,3.18,9.39,4.51,3.29,1.01,6.72,1.8,10.29,2.37,3.57.57,7.07,1.01,10.48,1.33h3.42l14.42-1.71c-1.64,2.85-3.46,5.87-5.45,9.06-1.99,3.19-4.1,6.28-6.31,9.25l-16.98,18.97,24.85,19.64c4.55-5.06,8.66-9.98,12.33-14.75,3.67-4.77,7.05-9.53,10.15-14.28l13.47-26.18h205.47c.28.02.36.19.67.19h81.39c-.13-.02-.16-.08-.29-.09h46.77ZM1414.12,2499.19l-12.81,2.18h-4.84l-7.59-.66-9.87-2.18c-1.64-.25-2.99-.68-4.03-1.28-1.04-.6-2.01-1.41-2.89-2.42-1.77-1.01-3.21-2.28-4.32-3.79s-2.01-3.1-2.7-4.74c-.7-1.64-1.23-3.34-1.61-5.08-.38-1.74-.57-3.59-.57-5.55l2.18-10.34,4.55-8.44c1.26-1.08,2.51-2.06,3.75-2.94,1.23-.89,2.67-1.64,4.32-2.28l10.72-1.99,9.39,1.99c3.35,1.2,5.98,2.94,7.87,5.22l5.41,7.87c1.01,1.52,1.69,3.21,2.04,5.08.35,1.87.68,3.81,1,5.83l1.8,10.62-1.8,12.9ZM1506.33,2501.85c.25-2.97.68-5.94,1.28-8.92.6-2.97,1.38-5.88,2.32-8.73.95-2.85,1.98-5.53,3.08-8.06,1.11-2.53,2.5-4.95,4.17-7.26,1.68-2.31,3.15-4.22,4.41-5.74,1.26-1.52,2.8-3,4.6-4.46,1.8-1.45,3.42-2.55,4.84-3.27,1.42-.73,3.65-1.72,6.69-2.99,7.46-2.28,12.96-3.4,16.51-3.37,3.54.03,6.58.36,9.11,1,2.53.63,4.59,1.19,6.17,1.66,1.58.47,3.13,1.03,4.65,1.66s2.97,1.31,4.36,2.04c1.39.73,3.05,1.93,4.98,3.6,1.93,1.68,4.22,4.38,6.88,8.11,2.66,3.73,4.63,6.8,5.93,9.2,1.3,2.4,2.4,5.03,3.32,7.87.92,2.85,1.68,5.76,2.28,8.73.6,2.97.9,5.94.9,8.92h-96.48Z"/>
            <path class="cls-2" d="M1862.36,2577.36h35.1l-1.23-1.33c-.89-.89-1.82-2.09-2.8-3.6-.98-1.52-1.72-3.1-2.23-4.74-.7-1.64-1.23-3.24-1.61-4.79s-.57-3.15-.57-4.79c0-2.28.19-4.25.57-5.93.38-1.68.92-3.34,1.61-4.98l5.03-8.25,7.59-5.88,9.87-1.8h105.96l.66-13.76-.66-15.65c-.19-6.07-1.12-11.98-2.8-17.74-1.68-5.76-3.72-11.48-6.12-17.17-4.87-11-11.48-21.06-19.83-30.17-4.05-3.73-8.17-6.94-12.38-9.63-4.21-2.69-8.59-4.92-13.14-6.69-9.55-4.11-19.38-6.17-29.5-6.17-4.49,0-8.73.32-12.71.95-3.98.63-7.97,1.58-11.95,2.85-3.98,1.2-7.76,2.7-11.34,4.51-3.57,1.8-7.07,4.06-10.48,6.78l-3.51,2.37,17.46,24.29,3.51-3.04c2.21-1.58,4.4-2.85,6.55-3.79,2.15-.95,4.43-1.87,6.83-2.75l15.65-3.13c3.29,0,6.45.32,9.49.95,3.04.63,5.91,1.71,8.63,3.23,2.78.89,5.5,2.21,8.16,3.98,2.66,1.77,5.19,3.86,7.59,6.26,2.97,3.1,5.61,6.28,7.92,9.53,2.31,3.26,4.25,6.69,5.83,10.29,1.52,3.98,2.72,7.95,3.6,11.91.89,3.95,1.49,8.08,1.8,12.38h-74.85c-4.55,0-8.63.32-12.24.95-3.6.63-6.93,1.55-9.96,2.75-7.21,2.59-13.03,6.51-17.46,11.76-2.34,2.28-4.41,4.76-6.21,7.45-1.8,2.69-3.53,5.45-5.17,8.3-1.77,4.05-2.97,7.84-3.6,11.38-.63,3.54-.95,7.24-.95,11.1,0,4.17.27,8.03.81,11.57s1.57,6.96,3.08,10.25Z"/>
            <path class="cls-2" d="M2096.98,2531.26h187.39c.29.02.49.09.81.09h45.35v-150.74h-29.88v121.33h-9.93c.15,0,.19-.09.35-.09h-13.28c-.25-4.81-.89-9.64-1.9-14.51-1.01-4.87-2.32-9.55-3.94-14.04-1.61-4.49-3.45-8.85-5.5-13.09-2.06-4.24-4.55-8.13-7.49-11.67-2.94-3.54-6.2-6.93-9.77-10.15-3.57-3.23-7.51-6.1-11.81-8.63-4.3-2.53-8.74-4.57-13.33-6.12-4.59-1.55-9.66-2.83-15.23-3.84-1.71-.76-5.68-1.22-11.91-1.38-6.23-.16-11.16.11-14.8.81-3.64.7-7.04,1.6-10.2,2.7-3.16,1.11-6.06,2.23-8.68,3.37s-5.79,2.91-9.49,5.31c-3.7,2.4-6.44,4.52-8.21,6.36v-14.32h-29.5v71.15l-2.85,5.5-6.26,2.56h-27.61c1.01-6.83,1.6-13.66,1.76-20.49.16-6.83-.21-13.53-1.09-20.11-.89-6.77-2.12-13.33-3.7-19.68-1.58-6.36-3.76-12.66-6.55-18.93h-33.39c1.83,3.23,3.49,6.56,4.98,10.01,1.49,3.45,2.61,6.88,3.37,10.29l4.74,21.34c.32,3.6.59,7.18.81,10.72.22,3.54.17,7.18-.14,10.91,0,3.73-.28,7.46-.85,11.19-.57,3.73-1.3,7.56-2.18,11.48l-2.85,10.53.09.09-3.51,9.58-4.74,8.54-6.17,8.44-7.21,9.58-9.58,11.38,24.67,19.45,12.05-13.95,9.58-13.76,7.4-13.38,5.98-13.76h24.48c-.12-.02-.15-.08-.27-.09ZM2149.76,2492.93c.6-2.97,1.38-5.88,2.32-8.73.95-2.85,1.98-5.53,3.08-8.06,1.11-2.53,2.5-4.95,4.17-7.26,1.68-2.31,3.15-4.22,4.41-5.74s2.8-3,4.6-4.46c1.8-1.45,3.42-2.55,4.84-3.27,1.42-.73,3.65-1.72,6.69-2.99,7.46-2.28,12.96-3.4,16.51-3.37,3.54.03,6.58.36,9.11,1,2.53.63,4.59,1.19,6.17,1.66,1.58.47,3.13,1.03,4.65,1.66,1.52.63,2.97,1.31,4.36,2.04,1.39.73,3.05,1.93,4.98,3.6,1.93,1.68,4.22,4.38,6.88,8.11,2.66,3.73,4.63,6.8,5.93,9.2,1.3,2.4,2.4,5.03,3.32,7.87.92,2.85,1.68,5.76,2.28,8.73.6,2.97.9,5.94.9,8.92h-96.48c.25-2.97.68-5.94,1.28-8.92Z"/>
            <rect class="cls-2" x="2357.65" y="2378.24" width="29.5" height="153.02"/>
          </g>
          <g>
            <path class="cls-2" d="M455.4,2714.65v-90.75h81.01v15.85h-65.29v59.04h65.41v15.85h-81.14ZM467.95,2675.2v-13.36h65.1v13.36h-65.1Z"/>
            <path class="cls-2" d="M550.14,2714.65v-90.75h15.85v74.9h61.04v15.85h-76.89Z"/>
            <path class="cls-2" d="M638.39,2714.65v-15.85h68.03c8.49,0,13.23-4.74,13.23-11.86,0-7.74-4.74-11.73-13.23-11.73h-41.69c-17.1,0-27.71-10.86-27.71-25.84s9.86-25.47,27.96-25.47h65.16v15.85h-65.16c-7.24,0-11.48,4.24-11.48,11.11s4.37,10.98,11.36,10.98h41.57c18.35,0,28.21,8.61,28.21,26.22,0,15.23-9.24,26.59-28.21,26.59h-68.03Z"/>
            <path class="cls-2" d="M837.11,2714.65l-13.61-22.84h-42.94l7.49-12.86h27.84l-20.22-33.95-41.19,69.65h-18.1l52.18-86.88c1.87-3.12,4.24-5.12,7.74-5.12s5.74,2,7.61,5.12l52.3,86.88h-19.1Z"/>
            <path class="cls-2" d="M950.19,2714.65l-22.97-25.22h-33.95v-13.98h37.82c11.36,0,17.35-6.49,17.35-18.23s-6.49-17.48-17.35-17.48h-49.43v74.9h-15.73v-90.75h65.16c20.72,0,32.95,12.86,32.95,33.08,0,14.98-6.99,25.59-18.72,30.08l27.34,27.59h-22.47Z"/>
            <path class="cls-2" d="M980.89,2715.02v-91.13h15.85v91.13h-15.85ZM1053.92,2715.02v-39.45h-45.69v-14.11h45.69v-37.57h15.85v91.13h-15.85Z"/>
            <path class="cls-2" d="M1122.19,2714.65v-90.75h52.55c25.59,0,44.19,18.1,44.19,44.44s-18.6,46.31-44.19,46.31h-52.55ZM1174.74,2698.79c16.35,0,28.34-12.61,28.34-29.71s-11.98-29.34-28.34-29.34h-36.82v59.04h36.82Z"/>
            <path class="cls-2" d="M1231.91,2714.65v-90.75h81.01v15.85h-65.29v59.04h65.41v15.85h-81.14ZM1246.33,2675.2v-13.36h63.22v13.36h-63.22Z"/>
            <path class="cls-2" d="M1320.53,2623.89h19.35l41.19,69.9,41.07-69.9h18.23l-52.3,86.88c-1.87,3.12-4.37,5.12-7.61,5.12-3.5,0-5.87-2-7.74-5.12l-52.18-86.88Z"/>
            <path class="cls-2" d="M1450.09,2714.65v-90.75h81.01v15.85h-65.29v59.04h65.41v15.85h-81.14ZM1464.57,2675.2v-13.36h63.17v13.36h-63.17Z"/>
            <path class="cls-2" d="M1544.83,2714.65v-90.75h15.85v74.9h61.04v15.85h-76.89Z"/>
            <path class="cls-2" d="M1674.52,2714.65c-25.34,0-44.06-19.97-44.06-46.31s18.72-44.44,44.06-44.44h22.09c26.21,0,44.44,18.1,44.44,44.44s-18.6,46.31-44.44,46.31h-22.09ZM1696.62,2698.79c16.73,0,28.59-12.61,28.59-29.71s-11.86-29.34-28.59-29.34h-22.09c-16.23,0-28.21,12.11-28.21,29.34s11.86,29.71,28.21,29.71h22.09Z"/>
            <path class="cls-2" d="M1781.24,2689.43v-15.35h36.45c11.11,0,17.73-6.99,17.73-17.23s-6.62-17.1-17.73-17.1h-48.06v74.9h-15.73v-90.75h63.79c20.97,0,33.2,12.61,33.2,32.46s-12.23,33.08-33.2,33.08h-36.45Z"/>
            <path class="cls-2" d="M1968.98,2714.65l-17.35-63.79-25.71,59.05c-1.75,3.87-4.25,5.99-8.11,5.99s-6.49-2.12-8.11-5.99l-25.59-59.05-17.35,63.79h-15.6l23.34-85.38c1.12-4.37,3.62-6.49,7.86-6.49,3.37,0,6.49,1.87,7.99,5.37l27.96,64.16,27.96-64.16c1.5-3.5,4.24-5.37,7.62-5.37,3.87,0,6.37,2.12,7.61,6.49l23.22,85.38h-15.73Z"/>
            <path class="cls-2" d="M1995.18,2714.65v-90.75h81.01v15.85h-65.28v59.04h65.41v15.85h-81.14ZM2006.25,2675.2v-13.36h66.58v13.36h-66.58Z"/>
            <path class="cls-2" d="M2104.65,2648.24v66.41h-15.1v-82.39c0-5.87,3.12-9.49,8.11-9.49,2.37,0,4.37.87,6.74,3.25l64.04,63.54v-66.41h15.1v83.13c0,5.99-3.24,9.49-7.86,9.49-2.62,0-4.99-1.12-7.24-3.37l-63.79-64.16Z"/>
            <path class="cls-2" d="M2227.98,2714.65v-74.9h-34.45v-15.85h84.76v15.85h-34.45v74.9h-15.85Z"/>
            <path class="cls-2" d="M2288.76,2714.65v-15.85h68.03c8.49,0,13.23-4.74,13.23-11.86,0-7.74-4.74-11.73-13.23-11.73h-41.69c-17.1,0-27.71-10.86-27.71-25.84s9.86-25.47,27.96-25.47h65.16v15.85h-65.16c-7.24,0-11.48,4.24-11.48,11.11s4.37,10.98,11.36,10.98h41.57c18.35,0,28.21,8.61,28.21,26.22,0,15.23-9.24,26.59-28.21,26.59h-68.03Z"/>
          </g>
        </g>
      </g>
      <rect class="cls-1" x="217.21" y="-697.17" width="1640.3" height="724.65"/>
      <rect class="cls-1" x="177.79" y="-701.06" width="1718" height="739"/>
    </g>
  </g>
</svg>