<?xml version="1.0" encoding="UTF-8"?>
<svg xmlns="http://www.w3.org/2000/svg" version="1.1" viewBox="0 0 795.5 258">
  <defs>
    <style>
      .cls-1 {
        fill: #fff;
      }
    </style>
  </defs>
  <!-- Generator: Adobe Illustrator 28.7.10, SVG Export Plug-In . SVG Version: 1.2.0 Build 236)  -->
  <g>
    <g id="Layer_1">
      <g>
        <path class="cls-1" d="M95.38,219.85c-.25-.21-.5-.43-.75-.66-.41-.37-.82-.75-1.23-1.13-.5-.45-.98-.92-1.46-1.4-.4-.38-.8-.78-1.2-1.19-.17-.16-.34-.34-.49-.51-.41-.4-.79-.8-1.15-1.21-.28-.28-.55-.57-.8-.86-.18-.18-.35-.37-.51-.56-.35-.38-.68-.76-1.01-1.15-.26-.29-.51-.59-.76-.89-.35-.4-.68-.81-1.01-1.22-.07-.07-.13-.15-.18-.23-.42-.51-.83-1.03-1.22-1.55-.41-.52-.8-1.04-1.19-1.57-.36-.5-.73-1.01-1.08-1.52-.14-.18-.26-.35-.37-.53-.33-.46-.64-.92-.94-1.39-.16-.23-.31-.46-.45-.69-.23-.33-.44-.66-.64-1-.25-.37-.48-.75-.71-1.13-.19-.3-.37-.6-.54-.91-.29-.47-.56-.94-.83-1.42-.01-.01-.02-.02-.02-.04-.39-.68-.77-1.37-1.14-2.07-.32-.59-.63-1.18-.92-1.77-.17-.33-.34-.66-.49-.99-.25-.51-.49-1.01-.72-1.51-.34-.72-.66-1.45-.98-2.18-.39-.89-.76-1.79-1.11-2.69-.23-.57-.45-1.15-.66-1.73-.28-.75-.55-1.5-.8-2.26-.25-.73-.49-1.47-.72-2.22-.04-.13-.08-.25-.11-.37-.21-.65-.4-1.31-.58-1.98-.21-.74-.41-1.49-.6-2.24-.18-.71-.34-1.41-.5-2.12-.15-.64-.29-1.3-.42-1.95-.25-1.25-.48-2.51-.67-3.77-.09-.56-.18-1.12-.25-1.69-.33-2.37-.56-4.77-.69-7.18-.04-.67-.07-1.34-.09-2.02-.03-.98-.05-1.96-.05-2.95v-48.89c0-.99.02-1.97.05-2.95.02-.68.05-1.35.09-2.02.13-2.41.36-4.81.69-7.18.07-.56.16-1.13.25-1.69.21-1.35.45-2.69.73-4.02.11-.57.23-1.14.36-1.7.16-.71.32-1.41.5-2.11.19-.76.39-1.51.6-2.25.15-.55.31-1.1.48-1.64.07-.27.15-.54.24-.8.22-.71.45-1.43.69-2.13.25-.76.52-1.51.8-2.26.19-.53.39-1.06.6-1.58.12-.31.24-.62.37-.93.26-.65.53-1.3.81-1.94.29-.65.57-1.29.87-1.93.04-.11.09-.22.15-.32.18-.4.37-.79.56-1.18.19-.41.4-.82.61-1.23.3-.61.61-1.21.93-1.81.34-.63.68-1.25,1.03-1.86.04-.09.09-.18.15-.27.25-.45.52-.9.79-1.35.17-.31.36-.61.54-.91.23-.38.46-.76.71-1.13.2-.34.42-.67.64-1,.12-.2.25-.41.4-.61.36-.56.74-1.12,1.13-1.67.43-.63.87-1.25,1.32-1.86.1-.14.21-.28.32-.42.32-.45.66-.88,1-1.32.28-.37.56-.73.85-1.09.16-.2.32-.41.5-.61.27-.34.55-.68.84-1.02.34-.42.69-.83,1.05-1.23.45-.53.91-1.05,1.4-1.56.22-.26.45-.52.71-.77.36-.41.75-.81,1.15-1.21.15-.17.32-.34.49-.51.4-.41.8-.81,1.2-1.19.48-.48.96-.94,1.46-1.4.41-.38.82-.76,1.23-1.12.25-.23.5-.46.75-.67.3-.27.6-.54.91-.79.17-.15.34-.29.51-.44-5.43-4.32-11.39-8-17.74-10.92l-1.54-.71-1.55.71c-30.59,14.08-50.35,44.93-50.35,78.6v48.89c0,32.79,19.03,63.29,48.47,77.72l3.43,1.67,3.42-1.67c5.64-2.77,10.97-6.15,15.86-10.04-.12-.1-.25-.2-.37-.32-.36-.3-.7-.6-1.05-.91Z"/>
        <path class="cls-1" d="M139.08,218.36c-.14-.13-.28-.26-.41-.38-.45-.43-.9-.85-1.34-1.29-.43-.41-.85-.83-1.26-1.25-.19-.19-.37-.38-.55-.57-.32-.33-.64-.66-.95-.99-.11-.12-.22-.23-.32-.35-.4-.42-.78-.84-1.16-1.27-.34-.38-.68-.77-1.01-1.16-.34-.39-.67-.78-.99-1.17-.25-.29-.49-.59-.73-.89-.79-.97-1.56-1.97-2.31-2.98-.42-.57-.83-1.14-1.23-1.71-.29-.42-.58-.84-.87-1.27-2.13-3.14-4.06-6.43-5.79-9.86-.08-.15-.15-.3-.22-.46-6.05-12.16-9.24-25.76-9.24-39.36v-48.89c0-13.6,3.19-27.21,9.24-39.36l.22-.45c.95-1.88,1.96-3.73,3.03-5.52.35-.6.72-1.19,1.09-1.78.35-.56.7-1.12,1.07-1.67.41-.64.83-1.26,1.27-1.87.32-.47.65-.94.99-1.4.07-.1.14-.2.22-.3.39-.54.79-1.07,1.2-1.6.42-.55.85-1.09,1.29-1.63.37-.47.75-.93,1.13-1.38.59-.7,1.19-1.4,1.81-2.08.38-.42.76-.84,1.15-1.26.47-.51.95-1.01,1.44-1.51.47-.48.95-.96,1.43-1.42.03-.05.07-.08.1-.1.48-.48.97-.94,1.46-1.4.51-.47,1.03-.94,1.55-1.41h-.01c-5.94-5.01-12.52-9.2-19.6-12.46l-1.55-.71-1.55.71c-6.65,3.06-12.87,6.95-18.51,11.56-.05.04-.11.09-.16.13-6.6,5.41-12.28,11.67-16.92,18.56-9.54,14.11-14.75,30.86-14.75,48.35v48.89c0,17.49,5.21,34.24,14.74,48.35,4.65,6.9,10.33,13.16,16.93,18.57.06.05.11.09.17.14,5.08,4.15,10.68,7.74,16.63,10.66l3.42,1.67,3.43-1.67c6.37-3.13,12.33-7.02,17.73-11.57-.11-.1-.22-.2-.33-.3-.33-.29-.66-.59-.98-.89Z"/>
        <path class="cls-1" d="M181.99,35.36c-4.92-3.7-10.25-6.88-15.85-9.45l-1.54-.71-1.55.71c-7.09,3.26-13.68,7.45-19.61,12.46.43.38.85.76,1.27,1.15.38.35.76.71,1.14,1.08.06.05.12.11.18.17.39.37.77.74,1.14,1.12.36.36.72.72,1.07,1.08.1.1.19.19.28.29.35.36.69.72,1.02,1.09.48.51.95,1.03,1.41,1.55.27.31.55.63.82.94.03.04.07.09.12.14.34.4.68.81,1.02,1.22.36.44.72.88,1.07,1.33.36.44.71.89,1.05,1.35.63.83,1.25,1.67,1.85,2.52.26.36.52.73.77,1.1,1.09,1.59,2.12,3.22,3.11,4.89,8.09,13.65,12.36,29.25,12.36,45.12v48.89c0,15.87-4.27,31.47-12.36,45.12-1.23,2.08-2.55,4.11-3.95,6.08-.31.45-.64.9-.97,1.35-.35.48-.71.95-1.07,1.42-.26.34-.52.67-.78,1-.32.41-.65.82-.98,1.22-.59.72-1.19,1.42-1.79,2.11-.33.38-.67.76-1.01,1.13-1.2,1.33-2.45,2.63-3.73,3.88-.42.4-.84.81-1.26,1.2-.43.41-.87.81-1.31,1.21-.16.15-.32.29-.48.42h.01s.01.02.01.02c5.41,4.55,11.36,8.44,17.72,11.56l3.43,1.67,3.42-1.67c4.91-2.41,9.61-5.29,13.97-8.57,21.6-16.25,34.5-42.1,34.5-69.15v-48.89c0-27.05-12.9-52.89-34.5-69.15Z"/>
        <path class="cls-1" d="M145.85,214.52c.32-.32.63-.64.94-.96.28-.29.55-.57.82-.85.35-.37.7-.75,1.04-1.13,1.37-1.51,2.69-3.07,3.95-4.68.26-.33.53-.67.78-1.01.34-.44.68-.89,1.01-1.35.33-.45.66-.91.98-1.37,1.3-1.83,2.52-3.73,3.67-5.67,7.91-13.34,12.08-28.59,12.08-44.1v-48.89c0-15.51-4.17-30.76-12.08-44.1-1.8-3.05-3.79-5.98-5.95-8.77-.32-.42-.65-.84-.98-1.25-.36-.45-.73-.9-1.1-1.35-.37-.44-.74-.88-1.13-1.32-.63-.73-1.27-1.44-1.93-2.14-.37-.41-.76-.82-1.16-1.23-.39-.4-.78-.8-1.18-1.2-.4-.39-.81-.78-1.21-1.17-.36-.34-.72-.68-1.08-1.02-.09-.08-.18-.17-.27-.25-.38-.34-.75-.68-1.13-1.02h-.01c-.09.08-.18.16-.26.23-.42.38-.84.75-1.25,1.14-.42.38-.83.77-1.24,1.16-.45.44-.89.87-1.33,1.31-.38.38-.75.76-1.12,1.15-.36.37-.71.75-1.06,1.13-.32.34-.63.68-.93,1.02-.5.55-.98,1.11-1.46,1.67-.39.46-.78.93-1.16,1.4-.43.52-.85,1.05-1.26,1.58-2.64,3.41-5.02,7.01-7.12,10.8-.27.46-.52.92-.77,1.38-.04.07-.08.14-.11.21-.23.42-.45.85-.67,1.28h0c6.04,12.18,9.24,25.77,9.24,39.36v48.89c0,13.6-3.2,27.19-9.23,39.36h-.01c.25.49.5.97.76,1.45.27.52.56,1.04.85,1.55.44.79.89,1.57,1.36,2.34.57.95,1.16,1.89,1.77,2.81,2.35,3.59,4.96,6.99,7.82,10.18.31.35.63.7.95,1.04.32.35.64.7.97,1.04.42.44.85.88,1.28,1.3.49.5,1,.99,1.51,1.48.46.44.93.88,1.4,1.31.1.1.21.2.32.29.25.23.5.46.75.68h.01c.25-.23.49-.44.73-.66.38-.35.76-.7,1.14-1.05.7-.66,1.39-1.32,2.06-2Z"/>
        <path class="cls-1" d="M128.54,205.02c.06.08.11.16.17.24.07.09.14.19.22.28-.13-.17-.26-.35-.39-.52Z"/>
        <polygon class="cls-1" points="278.35 86.61 313.33 86.61 313.33 115.31 321.77 115.31 321.77 52.75 313.33 52.75 313.33 79.11 278.35 79.11 278.35 52.75 269.9 52.75 269.9 115.31 278.35 115.31 278.35 86.61"/>
        <path class="cls-1" d="M343.01,107.29c2.91,2.97,6.29,5.3,10.13,6.99,3.84,1.69,8.02,2.53,12.52,2.53s8.58-.84,12.43-2.53c3.84-1.69,7.22-4.01,10.13-6.99,2.91-2.97,5.18-6.44,6.8-10.41,1.63-3.97,2.44-8.24,2.44-12.8s-.81-8.92-2.44-12.89c-1.62-3.97-3.89-7.44-6.8-10.41-2.91-2.97-6.3-5.3-10.17-6.99s-8.04-2.53-12.48-2.53-8.58.83-12.42,2.48c-3.84,1.66-7.22,3.99-10.13,6.99-2.91,3-5.18,6.47-6.8,10.41-1.62,3.94-2.44,8.22-2.44,12.85s.81,8.85,2.44,12.85c1.62,4,3.89,7.49,6.8,10.46ZM345.69,71.08c2-3.78,4.74-6.75,8.21-8.91,3.47-2.16,7.39-3.24,11.77-3.24s8.38,1.1,11.82,3.28c3.44,2.19,6.14,5.18,8.11,8.96s2.96,8.08,2.96,12.89-.99,9.12-2.96,12.9-4.68,6.75-8.11,8.91c-3.44,2.16-7.38,3.23-11.82,3.23s-8.3-1.08-11.77-3.23c-3.47-2.16-6.21-5.14-8.21-8.96-2-3.81-3-8.13-3-12.94s1-9.11,3-12.9Z"/>
        <path class="cls-1" d="M433.48,116.81c8,0,14.19-2.22,18.57-6.66s6.57-10.73,6.57-18.85v-38.55h-8.44v38.55c0,11.88-5.57,17.82-16.7,17.82s-16.51-5.94-16.51-17.82v-38.55h-8.44v38.55c0,8.13,2.17,14.41,6.52,18.85,4.34,4.44,10.49,6.66,18.43,6.66Z"/>
        <path class="cls-1" d="M504.06,114.42c3.28-1.6,5.85-3.82,7.69-6.66,1.85-2.85,2.77-6.14,2.77-9.9,0-4.69-1.55-8.63-4.64-11.82-3.1-3.19-7.61-5.5-13.55-6.94l-3.1-.75c-4.5-1.06-7.69-2.39-9.56-3.98-1.88-1.6-2.82-3.64-2.82-6.15,0-2.94,1.05-5.23,3.14-6.89s4.96-2.48,8.58-2.48c6,0,10.79,2.12,14.35,6.38l5.63-5.25c-4.38-5.82-10.85-8.72-19.41-8.72-6.26,0-11.28,1.6-15.06,4.78-3.78,3.19-5.67,7.47-5.67,12.85,0,4.38,1.42,7.96,4.27,10.74,2.85,2.78,7.3,4.9,13.37,6.33l3.1.75c4.44,1.06,7.7,2.53,9.8,4.41s3.14,4.28,3.14,7.22c0,3.31-1.22,5.95-3.66,7.93-2.44,1.97-5.72,2.95-9.85,2.95-6.51,0-12.23-2.87-17.17-8.63l-5.91,5.34c2.87,3.5,6.3,6.19,10.27,8.07,3.97,1.87,8.24,2.81,12.8,2.81s8.2-.8,11.49-2.39Z"/>
        <polygon class="cls-1" points="568.17 107.81 535.25 107.81 535.25 86.61 558.41 86.61 558.41 79.11 535.25 79.11 535.25 60.25 565.92 60.25 565.92 52.75 526.8 52.75 526.8 115.31 568.17 115.31 568.17 107.81"/>
        <polygon class="cls-1" points="621.07 107.81 588.15 107.81 588.15 52.75 579.7 52.75 579.7 115.31 621.07 115.31 621.07 107.81"/>
        <rect class="cls-1" x="631.1" y="52.75" width="8.44" height="62.56"/>
        <polygon class="cls-1" points="662.43 65.5 697.88 115.31 706.23 115.31 706.23 52.75 697.97 52.75 697.97 102.46 662.62 52.75 654.17 52.75 654.17 115.31 662.43 115.31 662.43 65.5"/>
        <polygon class="cls-1" points="729.31 92.89 737.65 83.8 759.7 115.31 769.73 115.31 743.46 78.07 766.73 52.75 757.07 52.75 729.31 82.86 729.31 52.75 720.86 52.75 720.86 115.31 729.31 115.31 729.31 92.89"/>
        <path class="cls-1" d="M297.28,162.92c-1.11.59-1.94,1.04-2.51,1.35l1.86,5.02c1.39-.98,2.67-1.79,3.86-2.43,1.19-.65,2.36-1.19,3.51-1.62,1.16-.44,2.36-.8,3.59-1.08,1.24-.28,2.6-.55,4.1-.81l.46-5.25c-1.23.36-2.47.69-3.7,1-1.24.31-2.24.47-3.02.47-1.49,0-2.71-.37-3.66-1.12-.96-.75-1.43-1.51-1.43-2.28,0-.88.47-1.66,1.43-2.36.95-.69,2.15-1.04,3.59-1.04.67,0,1.28.08,1.85.23.57.16,1.11.34,1.63.54v-5.25c-.36-.21-.83-.35-1.39-.43-.57-.08-1.13-.11-1.7-.11-1.08,0-2.15.29-3.21.89s-2.01,1.35-2.86,2.28c-.85.93-1.54,1.96-2.08,3.09-.54,1.13-.81,2.24-.81,3.32s.3,1.87.89,2.51c.59.65,1.43,1.17,2.51,1.58v.31c-.83.21-1.79.61-2.9,1.2Z"/>
        <polygon class="cls-1" points="420.37 145.58 414.35 139.56 408.24 145.58 414.35 151.68 420.37 145.58"/>
        <polygon class="cls-1" points="435.82 199.11 430.95 194.24 424.85 200.27 430.95 206.37 435.82 201.43 440.76 206.37 446.79 200.27 440.76 194.24 435.82 199.11"/>
        <path class="cls-1" d="M456.68,176.94c-.72.1-1.57.18-2.55.23-.98.05-1.96.08-2.94.08h-3.24c-1.9,0-3.14-.32-3.7-.96-.57-.65-.85-1.84-.85-3.59,0-.26.01-.54.04-.85.03-.31.07-.59.12-.85l1.31-8.96-9.89,1.85-.69,10.35c-.05.57-.16,1.04-.31,1.43-.16.39-.49.69-1.01.93-.51.23-1.27.4-2.27.5-1,.1-2.36.15-4.06.15h-3.94c-1.9,0-3.14-.32-3.7-.96-.57-.65-.85-1.84-.85-3.59,0-.26.01-.54.04-.85.03-.31.07-.59.12-.85l1.31-8.96-9.89,1.85-.69,10.35c-.05.57-.16,1.04-.31,1.43-.16.39-.49.69-1.01.93-.51.23-1.27.4-2.27.5-1,.1-2.36.15-4.06.15h-60.56c-1.55,0-2.79-.08-3.74-.23-.96-.16-1.72-.47-2.28-.93-.57-.47-.96-1.08-1.16-1.86-.2-.77-.31-1.78-.31-3.01v-35.53h-8.96v36.08c0,1.34-.31,2.42-.92,3.24s-1.8,1.47-3.55,1.93c-1.75.46-4.2.77-7.34.92-3.14.15-7.23.23-12.28.23-4.27,0-7.88-.11-10.82-.35-2.94-.23-5.3-.65-7.11-1.27s-3.1-1.44-3.9-2.46c-.8-1.02-1.2-2.33-1.2-3.92,0-1.02.21-2.22.62-3.57.41-1.36.92-2.91,1.54-4.65l-6.72,1.24c-.87,1.9-1.55,3.87-2.05,5.91-.49,2.04-.73,3.75-.73,5.14,0,4.79,2.42,8.22,7.26,10.31,4.84,2.08,12.07,3.13,21.7,3.13,4.53,0,8.55-.07,12.05-.19,3.5-.13,6.56-.48,9.19-1.05s4.85-1.48,6.68-2.72c1.83-1.25,3.36-3.01,4.6-5.3.16.93.48,1.91.97,2.92.49,1.01,1.13,1.92,1.93,2.73.8.81,1.75,1.47,2.86,1.99.86.4,1.83.6,2.87.69.11.01.13.09.26.09h62.49c1.13,0,2.11-.09,2.94-.27.83-.18,1.59-.5,2.28-.97s1.35-1.13,1.97-2.01c.62-.88,1.28-2.01,2.01-3.4.52,2.63,1.65,4.39,3.4,5.29,1.75.9,4.09,1.35,7.03,1.35h5.64c1.13,0,2.11-.09,2.94-.27.83-.18,1.59-.5,2.28-.97s1.35-1.13,1.97-2.01c.62-.88,1.28-2.01,2.01-3.4.52,2.63,1.65,4.39,3.4,5.29,1.75.9,4.09,1.35,7.03,1.35h3.47c6.9,0,11.71-.26,14.45-.77v-50.28h-8.88v41.25Z"/>
        <path class="cls-1" d="M574.36,159.79l-8.57,2.63c1.8,3.55,3.11,6.36,3.94,8.42.82,2.06,1.23,3.5,1.23,4.33,0,.36-.01.66-.04.89-.03.23-.09.5-.19.81-.62.16-1.55.26-2.78.31-1.24.05-2.24.08-3.02.08h-4.4c-1.91,0-3.15-.32-3.71-.96-.57-.65-.85-1.84-.85-3.59,0-.26.01-.54.04-.85.03-.31.07-.59.12-.85l1.31-8.96-9.89,1.85-.69,10.35c-.05.62-.14,1.12-.27,1.51-.13.39-.37.69-.73.93-.36.23-.89.38-1.59.46s-1.63.11-2.82.11h-2.63c-.98,0-1.78-.09-2.39-.27-.62-.18-1.19-.63-1.74-1.35-.54-.72-1.12-1.78-1.74-3.17-.62-1.39-1.39-3.29-2.32-5.72l-9.03,4.17c.51.82,1.04,1.75,1.58,2.78.54,1.03,1.03,2.11,1.47,3.24.44,1.13.79,2.29,1.04,3.48.26,1.18.39,2.37.39,3.55,0,1.34-.24,2.64-.73,3.9-.49,1.26-1.3,2.37-2.43,3.32-1.13.95-2.63,1.71-4.48,2.28-1.86.57-4.15.85-6.88.85-1.7,0-3.3-.19-4.79-.58s-2.81-.97-3.94-1.74c-1.13-.77-2.02-1.74-2.66-2.9-.64-1.16-.96-2.48-.96-3.98,0-2.99.74-6.02,2.24-9.12l-7.64-3.32c-1.24,2.06-2.16,4.27-2.78,6.64-.62,2.37-.93,4.63-.93,6.79,0,2.73.48,5.19,1.43,7.38s2.32,4.05,4.1,5.6c1.78,1.54,3.93,2.74,6.45,3.59,2.52.85,5.33,1.28,8.42,1.28,2.83,0,5.56-.41,8.19-1.24,2.63-.82,4.98-2.1,7.07-3.82,2.08-1.73,3.82-3.95,5.22-6.68,1.39-2.73,2.24-6,2.54-9.81.47,1.44,1.23,2.52,2.28,3.24s2.15,1.08,3.28,1.08h1.54c1.13,0,2.11-.09,2.94-.27.83-.18,1.59-.5,2.28-.97s1.35-1.13,1.97-2.01c.62-.88,1.29-2.01,2.01-3.4.51,2.63,1.65,4.39,3.4,5.29,1.75.9,4.1,1.35,7.03,1.35h4.95c1.59,0,3.04-.05,4.32-.15,1.29-.1,2.81-.31,4.56-.62,1.03-1.7,1.9-3.33,2.62-4.9.72-1.57,1.08-3.46,1.08-5.68s-.31-4.76-.92-7.34-1.44-5.33-2.47-8.27Z"/>
        <path class="cls-1" d="M770.09,169.68c-.77-2.01-2.08-4.11-3.94-6.3-1.85-2.19-4.35-4.41-7.49-6.68-3.14-2.27-7.05-4.48-11.74-6.64-.88.57-1.61,1.39-2.2,2.47-.59,1.08-.89,2.14-.89,3.17,0,.41-.28.9-.81,1.47-.54.57-1.15,1.13-1.82,1.7-.83.72-1.71,1.62-2.66,2.7-.96,1.08-1.83,2.26-2.63,3.52-.8,1.26-1.46,2.57-1.97,3.94-.51,1.37-.77,2.69-.77,3.98,0,.67.05,1.38.15,2.12.1.75.28,1.46.54,2.12h-120.96c-.1-2.21-.39-4.43-.89-6.64-.49-2.22-1.16-4.21-2.01-5.99-.85-1.78-1.91-3.21-3.17-4.29-1.26-1.08-2.69-1.62-4.28-1.62-2.22,0-4.25.66-6.1,1.97-1.86,1.31-3.47,2.94-4.83,4.87-1.36,1.93-2.42,3.97-3.17,6.1s-1.12,4.03-1.12,5.68c0,.77.14,1.7.43,2.78.28,1.08.83,2.11,1.62,3.09.8.98,1.96,1.82,3.48,2.51,1.51.69,3.51,1.04,5.98,1.04h6.49c-.93,3.4-3.12,6.35-6.57,8.84-3.45,2.5-8.06,4.98-13.83,7.46l5.25,8.5c4.17-2.06,7.64-4.29,10.39-6.68,2.75-2.39,4.97-4.72,6.64-6.99,1.68-2.27,2.91-4.38,3.71-6.34s1.35-3.55,1.66-4.79h156.57l1.85-9.19c.1-.36.17-.77.2-1.24.03-.47.04-.85.04-1.16,0-1.65-.39-3.47-1.16-5.48ZM599.46,177.25c-2.31,0-3.89-.35-4.71-1.04-.82-.69-1.23-1.56-1.23-2.59,0-.77.16-1.53.5-2.28.33-.74.77-1.41,1.32-2.01.54-.59,1.17-1.08,1.89-1.47.72-.39,1.47-.58,2.24-.58.98,0,1.85.34,2.63,1.01.77.67,1.43,1.5,1.97,2.51.54,1,.96,2.08,1.24,3.24.28,1.16.43,2.23.43,3.21h-6.26ZM749.85,174.2c-.41.95-1.11,1.97-2.08,3.05h-2.16c-4.43,0-6.65-1.44-6.65-4.32,0-.93.21-1.93.62-3.02.41-1.08.92-2.09,1.54-3.05.62-.95,1.27-1.74,1.93-2.36.67-.62,1.28-.93,1.86-.93.67,0,1.34.29,2.01.85.67.57,1.26,1.26,1.78,2.09.51.82.94,1.68,1.27,2.59.33.9.5,1.69.5,2.36,0,.88-.2,1.79-.62,2.74ZM764.22,177.25h-9.65c.41-1.13.68-2.28.81-3.43.13-1.16.2-2.02.2-2.59,0-.93-.21-2.07-.62-3.44-.41-1.36-1.15-2.79-2.24-4.29,2.37,1.08,4.33,2.18,5.87,3.28,1.55,1.11,2.75,2.16,3.63,3.17.88,1.01,1.49,1.91,1.86,2.7.36.8.54,1.4.54,1.82,0,1.08-.12,2.01-.39,2.78Z"/>
      </g>
    </g>
  </g>
</svg>