<?xml version="1.0" encoding="UTF-8"?>
<svg xmlns="http://www.w3.org/2000/svg" version="1.1" viewBox="0 0 192.87 209.8">
  <defs>
    <style>
      .cls-1 {
        fill: #da1f27;
      }

      .cls-2 {
        fill: #231f20;
      }

      .cls-3 {
        fill: #fbb140;
      }

      .cls-4 {
        fill: #009756;
      }
    </style>
  </defs>
  <!-- Generator: Adobe Illustrator 28.7.10, SVG Export Plug-In . SVG Version: 1.2.0 Build 236)  -->
  <g>
    <g id="Layer_1">
      <g>
        <path class="cls-1" d="M73.76,197c-5.16,4.23-10.85,7.9-17,10.92l-3.86,1.89-3.86-1.89C19.02,193.22,0,162.72,0,129.31v-48.9C0,46.24,19.89,15.19,50.93.9l1.97-.9,1.97.9c6.88,3.17,13.21,7.16,18.89,11.82-19.98,16.37-32.03,41.08-32.03,67.68v48.9c0,26.57,12.02,51.29,32.03,67.69Z"/>
        <path class="cls-4" d="M117.3,195.46c-5.63,4.88-11.94,9.08-18.82,12.46l-3.86,1.89-3.86-1.89c-6.15-3.02-11.84-6.69-17-10.92-20.01-16.4-32.03-41.12-32.03-67.69v-48.9c0-26.6,12.05-51.31,32.03-67.68,5.68-4.67,12.01-8.66,18.89-11.82l1.97-.9,1.97.9c7.62,3.51,14.57,8.02,20.72,13.35-8.67,7.51-15.74,16.63-20.86,26.79-6.04,11.98-9.35,25.41-9.35,39.36v48.9c0,13.94,3.31,27.38,9.35,39.37,5.12,10.15,12.18,19.27,20.86,26.78Z"/>
        <path class="cls-2" d="M192.87,80.41v48.9c0,27.81-13.18,53.6-34.9,69.94-4.38,3.29-9.1,6.2-14.13,8.67l-3.86,1.89-3.86-1.89c-6.88-3.37-13.19-7.58-18.82-12.46,7.15-6.2,13.21-13.49,17.99-21.55,7.85-13.25,12.22-28.59,12.22-44.6v-48.9c0-16.03-4.37-31.37-12.22-44.61-4.78-8.06-10.85-15.35-17.99-21.54,6.15-5.33,13.09-9.84,20.72-13.35l1.97-.9,1.97.9c5.74,2.64,11.1,5.86,16.03,9.56,21.69,16.32,34.9,42.09,34.9,69.94Z"/>
        <path class="cls-3" d="M147.5,80.41v48.9c0,16.01-4.37,31.35-12.22,44.6-4.77,8.06-10.84,15.35-17.99,21.55-8.68-7.51-15.74-16.63-20.86-26.78,6.04-11.99,9.35-25.42,9.35-39.37v-48.9c0-13.95-3.32-27.38-9.35-39.36,5.11-10.16,12.18-19.28,20.86-26.79,7.15,6.19,13.21,13.48,17.99,21.54,7.84,13.25,12.22,28.59,12.22,44.61Z"/>
      </g>
    </g>
  </g>
</svg>