<?xml version="1.0" encoding="UTF-8"?>
<svg xmlns="http://www.w3.org/2000/svg" version="1.1" viewBox="0 0 192.87 209.8">
  <defs>
    <style>
      .cls-1 {
        fill: #231f20;
      }

      .cls-2 {
        fill: #fff;
      }
    </style>
  </defs>
  <!-- Generator: Adobe Illustrator 28.7.10, SVG Export Plug-In . SVG Version: 1.2.0 Build 236)  -->
  <g>
    <g id="Layer_1">
      <g>
        <g>
          <path class="cls-2" d="M71.81,196.67c.12.12.25.22.37.32-4.89,3.89-10.22,7.27-15.86,10.04l-3.42,1.67-3.43-1.67C20.03,192.6,1,162.1,1,129.31v-48.89C1,46.75,20.76,15.9,51.35,1.82l1.55-.71,1.54.71c6.35,2.92,12.31,6.6,17.74,10.92-.17.15-.34.29-.51.44-.31.25-.61.52-.91.79-.25.21-.5.44-.75.67-.41.36-.82.74-1.23,1.12-.5.46-.98.92-1.46,1.4-.4.38-.8.78-1.2,1.19-.17.17-.34.34-.49.51-.4.4-.79.8-1.15,1.21-.26.25-.49.51-.71.77-.49.51-.95,1.03-1.4,1.56-.36.4-.71.81-1.05,1.23-.29.34-.57.68-.84,1.02-.18.2-.34.41-.5.61-.29.36-.57.72-.85,1.09-.34.44-.68.87-1,1.32-.11.14-.22.28-.32.42-.45.61-.89,1.23-1.32,1.86-.39.55-.77,1.11-1.13,1.67-.15.2-.28.41-.4.61-.22.33-.44.66-.64,1-.25.37-.48.75-.71,1.13-.18.3-.37.6-.54.91-.27.45-.54.9-.79,1.35-.06.09-.11.18-.15.27-.35.61-.69,1.23-1.03,1.86-.32.6-.63,1.2-.93,1.81-.21.41-.42.82-.61,1.23-.19.39-.38.78-.56,1.18-.06.1-.11.21-.15.32-.3.64-.58,1.28-.87,1.93-.28.64-.55,1.29-.81,1.94-.13.31-.25.62-.37.93-.21.52-.41,1.05-.6,1.58-.28.75-.55,1.5-.8,2.26-.24.7-.47,1.42-.69,2.13-.09.26-.17.53-.24.8-.17.54-.33,1.09-.48,1.64-.21.74-.41,1.49-.6,2.25-.18.7-.34,1.4-.5,2.11-.13.56-.25,1.13-.36,1.7-.28,1.33-.52,2.67-.73,4.02-.09.56-.18,1.13-.25,1.69-.33,2.37-.56,4.77-.69,7.18-.04.67-.07,1.34-.09,2.02-.03.98-.05,1.96-.05,2.95v48.89c0,.99.02,1.97.05,2.95.02.68.05,1.35.09,2.02.13,2.41.36,4.81.69,7.18.07.57.16,1.13.25,1.69.19,1.26.42,2.52.67,3.77.13.65.27,1.31.42,1.95.16.71.32,1.41.5,2.12.19.75.39,1.5.6,2.24.18.67.37,1.33.58,1.98.03.12.07.24.11.37.23.75.47,1.49.72,2.22.25.76.52,1.51.8,2.26.21.58.43,1.16.66,1.73.35.9.72,1.8,1.11,2.69.32.73.64,1.46.98,2.18.23.5.47,1,.72,1.51.15.33.32.66.49.99.29.59.6,1.18.92,1.77.37.7.75,1.39,1.14,2.07,0,.02.01.03.02.04.27.48.54.95.83,1.42.17.31.35.61.54.91.23.38.46.76.71,1.13.2.34.41.67.64,1,.14.23.29.46.45.69.3.47.61.93.94,1.39.11.18.23.35.37.53.35.51.72,1.02,1.08,1.52.39.53.78,1.05,1.19,1.57.39.52.8,1.04,1.22,1.55.05.08.11.16.18.23.33.41.66.82,1.01,1.22.25.3.5.6.76.89.33.39.66.77,1.01,1.15.16.19.33.38.51.56.25.29.52.58.8.86.36.41.74.81,1.15,1.21.15.17.32.35.49.51.4.41.8.81,1.2,1.19.48.48.96.95,1.46,1.4.41.38.82.76,1.23,1.13.25.23.5.45.75.66.35.31.69.61,1.05.91Z"/>
          <path class="cls-2" d="M74.56,196.37c-.06-.05-.11-.09-.17-.14-6.6-5.41-12.28-11.67-16.93-18.57-9.53-14.11-14.74-30.86-14.74-48.35v-48.89c0-17.49,5.21-34.24,14.75-48.35,4.64-6.89,10.32-13.15,16.92-18.56.05-.04.11-.09.16-.13v182.99Z"/>
        </g>
        <g>
          <path class="cls-2" d="M115.44,195.16c.11.1.22.2.33.3-5.4,4.55-11.36,8.44-17.73,11.57l-3.43,1.67-3.42-1.67c-5.95-2.92-11.55-6.51-16.63-10.66-.06-.05-.11-.09-.17-.14-6.6-5.41-12.28-11.67-16.93-18.57V32.07c4.65-6.89,10.33-13.15,16.93-18.56.05-.04.11-.09.16-.13,5.64-4.61,11.86-8.5,18.51-11.56l1.55-.71,1.55.71c7.08,3.26,13.66,7.45,19.6,12.45h.01c-.52.48-1.04.95-1.55,1.42-.49.46-.98.92-1.46,1.4-.03.02-.07.05-.1.1-.48.46-.96.94-1.43,1.42-.49.5-.97,1-1.44,1.51-.39.42-.77.84-1.15,1.26-.62.68-1.22,1.38-1.81,2.08-.38.45-.76.91-1.13,1.38-.44.54-.87,1.08-1.29,1.63-.41.53-.81,1.06-1.2,1.6-.08.1-.15.2-.22.3-.34.46-.67.93-.99,1.4-.44.61-.86,1.23-1.27,1.87-.37.55-.72,1.11-1.07,1.67-.37.59-.74,1.18-1.09,1.78-1.07,1.79-2.08,3.64-3.03,5.52l-.22.45c-6.05,12.15-9.24,25.76-9.24,39.36v48.89c0,13.6,3.19,27.2,9.24,39.36.07.16.14.31.22.46,1.73,3.43,3.66,6.72,5.79,9.86.29.43.58.85.87,1.27.4.57.81,1.14,1.23,1.71.75,1.01,1.52,2.01,2.31,2.98.24.3.48.6.73.89.32.39.65.78.99,1.17.33.39.67.78,1.01,1.16.38.43.76.85,1.16,1.27.1.12.21.23.32.35.31.33.63.66.95.99.18.19.36.38.55.57.41.42.83.84,1.26,1.25.44.44.89.86,1.34,1.29.13.12.27.25.41.38.32.3.65.6.98.89Z"/>
          <path class="cls-1" d="M116.54,193.46c.25.23.5.46.75.68h.01c-.26-.23-.51-.45-.76-.68ZM103.92,180.92c.06.08.11.16.17.24.07.09.14.19.22.28-.13-.17-.26-.35-.39-.52ZM97.56,168.67h-.01c.25.49.5.97.76,1.45-.26-.48-.51-.96-.75-1.45Z"/>
        </g>
        <g>
          <path class="cls-2" d="M191.87,80.42v48.89c0,27.05-12.9,52.9-34.5,69.15-4.36,3.28-9.06,6.16-13.97,8.57l-3.42,1.67-3.43-1.67c-6.36-3.12-12.31-7.01-17.72-11.56l-.02-.02c.16-.13.32-.27.48-.42.44-.4.88-.8,1.31-1.21.42-.39.84-.8,1.26-1.2,1.28-1.25,2.53-2.55,3.73-3.88.34-.37.68-.75,1.01-1.13.6-.69,1.2-1.39,1.79-2.11.33-.4.66-.81.98-1.22.26-.33.52-.66.78-1,.36-.47.72-.94,1.07-1.42.33-.45.66-.9.97-1.35,1.4-1.97,2.72-4,3.95-6.08,8.09-13.65,12.36-29.25,12.36-45.12v-48.89c0-15.87-4.27-31.47-12.36-45.12-.99-1.67-2.02-3.3-3.11-4.89-.25-.37-.51-.74-.77-1.1-.6-.85-1.22-1.69-1.85-2.52-.34-.46-.69-.91-1.05-1.35-.35-.45-.71-.89-1.07-1.33-.34-.41-.68-.82-1.02-1.22-.05-.05-.09-.1-.12-.14-.27-.31-.55-.63-.82-.94-.46-.52-.93-1.04-1.41-1.55-.33-.37-.67-.73-1.02-1.09-.09-.1-.18-.19-.28-.29-.35-.36-.71-.72-1.07-1.08-.37-.38-.75-.75-1.14-1.12-.06-.06-.12-.12-.18-.17-.38-.37-.76-.73-1.14-1.08-.42-.39-.84-.77-1.27-1.15,5.93-5.01,12.52-9.2,19.61-12.46l1.55-.71,1.54.71c5.6,2.57,10.93,5.75,15.85,9.45,21.6,16.26,34.5,42.1,34.5,69.15Z"/>
          <path class="cls-1" d="M118.81,195.45h.01c.16-.13.32-.27.47-.42-.16.15-.32.29-.48.42Z"/>
        </g>
        <g>
          <path class="cls-2" d="M146.5,80.42v48.89c0,15.51-4.17,30.76-12.08,44.1-1.15,1.94-2.37,3.84-3.67,5.67-.32.46-.65.92-.98,1.37-.33.46-.67.91-1.01,1.35-.25.34-.52.68-.78,1.01-1.26,1.61-2.58,3.17-3.95,4.68-.34.38-.69.76-1.04,1.13-.27.28-.54.56-.82.85-.31.32-.62.64-.94.96-.67.68-1.36,1.34-2.06,2-.38.35-.76.7-1.14,1.05-.24.22-.48.43-.73.65h-.01c-.25-.21-.5-.44-.75-.67-.11-.09-.22-.19-.32-.29-.47-.43-.94-.87-1.4-1.31-.51-.49-1.02-.98-1.51-1.48-.43-.42-.86-.86-1.28-1.3-.33-.34-.65-.69-.97-1.04-.32-.34-.64-.69-.95-1.04-2.86-3.19-5.47-6.59-7.82-10.18-.61-.92-1.2-1.86-1.77-2.81-.47-.77-.92-1.55-1.36-2.34-.29-.51-.58-1.03-.85-1.55-.26-.48-.51-.96-.76-1.44h.01c6.03-12.18,9.23-25.77,9.23-39.37v-48.89c0-13.59-3.2-27.18-9.24-39.35h0c.22-.44.44-.87.67-1.29.03-.07.07-.14.11-.21.25-.46.5-.92.77-1.38,2.1-3.79,4.48-7.39,7.12-10.8.41-.53.83-1.06,1.26-1.58.38-.47.77-.94,1.16-1.4.48-.56.96-1.12,1.46-1.67.3-.34.61-.68.93-1.02.35-.38.7-.76,1.06-1.13.37-.39.74-.77,1.12-1.15.44-.44.88-.87,1.33-1.31.41-.39.82-.78,1.24-1.16.41-.39.83-.76,1.25-1.14.08-.07.17-.15.26-.23h.01c.38.34.75.68,1.13,1.02.09.08.18.17.27.25.36.34.72.68,1.08,1.02.4.39.81.78,1.21,1.17.4.4.79.8,1.18,1.2.4.41.79.82,1.16,1.23.66.7,1.3,1.41,1.93,2.14.39.44.76.88,1.13,1.32.37.45.74.9,1.1,1.35.33.41.66.83.98,1.25,2.16,2.79,4.15,5.72,5.95,8.77,7.91,13.34,12.08,28.59,12.08,44.1Z"/>
          <path class="cls-1" d="M103.92,180.92c.06.08.11.16.17.24.07.09.14.19.22.28-.13-.17-.26-.35-.39-.52ZM95.32,168.67h-.01s.23.46.23.46c-.08-.15-.15-.3-.22-.46Z"/>
        </g>
      </g>
    </g>
  </g>
</svg>