<?xml version="1.0" encoding="UTF-8"?>
<svg xmlns="http://www.w3.org/2000/svg" version="1.1" viewBox="0 0 795.5 258">
  <defs>
    <style>
      .cls-1 {
        fill: #da1f27;
      }

      .cls-2 {
        fill: #231f20;
      }

      .cls-3 {
        fill: #fbb140;
      }

      .cls-4 {
        fill: #009756;
      }
    </style>
  </defs>
  <!-- Generator: Adobe Illustrator 28.7.10, SVG Export Plug-In . SVG Version: 1.2.0 Build 236)  -->
  <g>
    <g id="Layer_1">
      <g>
        <path class="cls-1" d="M98.01,221.09c-5.16,4.23-10.85,7.9-17,10.92l-3.86,1.89-3.86-1.89c-30.01-14.7-49.04-45.19-49.04-78.61v-48.9c0-34.17,19.89-65.22,50.93-79.5l1.97-.9,1.97.9c6.88,3.17,13.21,7.16,18.89,11.82-19.98,16.37-32.03,41.08-32.03,67.68v48.9c0,26.57,12.02,51.29,32.03,67.69Z"/>
        <path class="cls-4" d="M141.55,219.56c-5.63,4.88-11.94,9.08-18.82,12.46l-3.86,1.89-3.86-1.89c-6.15-3.02-11.84-6.69-17-10.92-20.01-16.4-32.03-41.12-32.03-67.69v-48.9c0-26.6,12.05-51.31,32.03-67.68,5.68-4.67,12.01-8.66,18.89-11.82l1.97-.9,1.97.9c7.62,3.51,14.57,8.02,20.72,13.35-8.67,7.51-15.74,16.63-20.86,26.79-6.04,11.98-9.35,25.41-9.35,39.36v48.9c0,13.94,3.31,27.38,9.35,39.37,5.12,10.15,12.18,19.27,20.86,26.78Z"/>
        <path class="cls-2" d="M217.12,104.51v48.9c0,27.81-13.18,53.6-34.9,69.94-4.38,3.29-9.1,6.2-14.13,8.67l-3.86,1.89-3.86-1.89c-6.88-3.37-13.19-7.58-18.82-12.46,7.15-6.2,13.21-13.49,17.99-21.55,7.85-13.25,12.22-28.59,12.22-44.6v-48.9c0-16.03-4.37-31.37-12.22-44.61-4.78-8.06-10.85-15.35-17.99-21.54,6.15-5.33,13.09-9.84,20.72-13.35l1.97-.9,1.97.9c5.74,2.64,11.1,5.86,16.03,9.56,21.69,16.32,34.9,42.09,34.9,69.94Z"/>
        <path class="cls-3" d="M171.75,104.51v48.9c0,16.01-4.37,31.35-12.22,44.6-4.77,8.06-10.84,15.35-17.99,21.55-8.68-7.51-15.74-16.63-20.86-26.78,6.04-11.99,9.35-25.42,9.35-39.37v-48.9c0-13.95-3.32-27.38-9.35-39.36,5.11-10.16,12.18-19.28,20.86-26.79,7.15,6.19,13.21,13.48,17.99,21.54,7.84,13.25,12.22,28.59,12.22,44.61Z"/>
        <g>
          <path class="cls-2" d="M313.33,86.61h-34.98v28.7h-8.44v-62.56h8.44v26.36h34.98v-26.36h8.44v62.56h-8.44v-28.7Z"/>
          <path class="cls-2" d="M333.78,83.98c0-4.63.81-8.91,2.44-12.85,1.62-3.94,3.89-7.41,6.8-10.41,2.91-3,6.29-5.33,10.13-6.99,3.84-1.65,7.99-2.48,12.42-2.48s8.6.85,12.48,2.53c3.88,1.69,7.27,4.02,10.17,6.99,2.91,2.97,5.18,6.44,6.8,10.41,1.63,3.97,2.44,8.27,2.44,12.89s-.81,8.83-2.44,12.8c-1.62,3.97-3.89,7.44-6.8,10.41-2.91,2.97-6.28,5.3-10.13,6.99-3.84,1.69-7.99,2.53-12.43,2.53s-8.68-.84-12.52-2.53c-3.84-1.69-7.22-4.01-10.13-6.99-2.91-2.97-5.18-6.45-6.8-10.46-1.62-4-2.44-8.28-2.44-12.85ZM342.69,83.98c0,4.82,1,9.13,3,12.94,2,3.82,4.74,6.8,8.21,8.96,3.47,2.16,7.39,3.23,11.77,3.23s8.38-1.08,11.82-3.23c3.44-2.16,6.14-5.13,8.11-8.91,1.97-3.78,2.96-8.08,2.96-12.9s-.99-9.11-2.96-12.89c-1.97-3.78-4.68-6.77-8.11-8.96-3.44-2.19-7.38-3.28-11.82-3.28s-8.3,1.08-11.77,3.24c-3.47,2.15-6.21,5.12-8.21,8.91-2,3.79-3,8.08-3,12.9Z"/>
          <path class="cls-2" d="M408.53,91.3v-38.55h8.44v38.55c0,11.88,5.5,17.82,16.51,17.82s16.7-5.94,16.7-17.82v-38.55h8.44v38.55c0,8.13-2.19,14.41-6.57,18.85-4.38,4.44-10.57,6.66-18.57,6.66s-14.09-2.22-18.43-6.66c-4.34-4.44-6.52-10.73-6.52-18.85Z"/>
          <path class="cls-2" d="M506.08,98.33c0-2.94-1.05-5.35-3.14-7.22-2.1-1.87-5.36-3.35-9.8-4.41l-3.1-.75c-6.07-1.44-10.52-3.55-13.37-6.33-2.85-2.78-4.27-6.36-4.27-10.74,0-5.38,1.89-9.66,5.67-12.85,3.78-3.19,8.8-4.78,15.06-4.78,8.56,0,15.03,2.91,19.41,8.72l-5.63,5.25c-3.56-4.25-8.34-6.38-14.35-6.38-3.63,0-6.49.83-8.58,2.48-2.1,1.66-3.14,3.96-3.14,6.89,0,2.5.94,4.55,2.82,6.15,1.87,1.59,5.06,2.92,9.56,3.98l3.1.75c5.94,1.44,10.46,3.75,13.55,6.94,3.1,3.19,4.64,7.13,4.64,11.82,0,3.75-.92,7.05-2.77,9.9-1.84,2.85-4.41,5.07-7.69,6.66-3.28,1.59-7.11,2.39-11.49,2.39s-8.83-.94-12.8-2.81c-3.97-1.88-7.4-4.57-10.27-8.07l5.91-5.34c4.94,5.75,10.66,8.63,17.17,8.63,4.12,0,7.41-.98,9.85-2.95,2.44-1.97,3.66-4.61,3.66-7.93Z"/>
          <path class="cls-2" d="M526.8,52.75h39.11v7.5h-30.67v18.85h23.17v7.5h-23.17v21.2h32.92v7.5h-41.37v-62.56Z"/>
          <path class="cls-2" d="M579.7,52.75h8.44v55.06h32.92v7.5h-41.37v-62.56Z"/>
          <path class="cls-2" d="M631.1,52.75h8.44v62.56h-8.44v-62.56Z"/>
          <path class="cls-2" d="M654.17,52.75h8.44l35.36,49.71v-49.71h8.25v62.56h-8.35l-35.45-49.81v49.81h-8.26v-62.56Z"/>
          <path class="cls-2" d="M720.86,52.75h8.44v30.11l27.76-30.11h9.66l-23.26,25.32,26.27,37.24h-10.04l-22.05-31.51-8.34,9.1v22.42h-8.44v-62.56Z"/>
        </g>
        <g>
          <path d="M297.28,162.92c-1.11.59-1.94,1.04-2.51,1.35l1.86,5.02c1.39-.98,2.67-1.79,3.86-2.43,1.19-.65,2.36-1.19,3.51-1.62,1.16-.44,2.36-.8,3.59-1.08,1.24-.28,2.6-.55,4.1-.81l.46-5.25c-1.23.36-2.47.69-3.7,1-1.24.31-2.24.47-3.02.47-1.49,0-2.71-.37-3.66-1.12-.96-.75-1.43-1.51-1.43-2.28,0-.88.47-1.66,1.43-2.36.95-.69,2.15-1.04,3.59-1.04.67,0,1.28.08,1.85.23.57.16,1.11.34,1.63.54v-5.25c-.36-.21-.83-.35-1.39-.43-.57-.08-1.13-.11-1.7-.11-1.08,0-2.15.29-3.21.89s-2.01,1.35-2.86,2.28c-.85.93-1.54,1.96-2.08,3.09-.54,1.13-.81,2.24-.81,3.32s.29,1.87.88,2.51c.59.65,1.43,1.17,2.51,1.58v.31c-.83.21-1.79.61-2.9,1.2Z"/>
          <polygon points="420.37 145.58 414.35 139.56 408.24 145.58 414.35 151.68 420.37 145.58"/>
          <polygon points="435.82 199.11 430.95 194.24 424.85 200.27 430.95 206.37 435.82 201.43 440.76 206.37 446.79 200.27 440.76 194.24 435.82 199.11"/>
          <path d="M456.68,176.94c-.72.1-1.57.18-2.55.23s-1.96.08-2.94.08h-3.24c-1.9,0-3.14-.32-3.7-.96-.57-.65-.85-1.84-.85-3.59,0-.26.01-.54.04-.85.03-.31.07-.59.12-.85l1.31-8.96-9.89,1.85-.69,10.35c-.05.57-.16,1.04-.31,1.43-.16.39-.49.69-1.01.93-.51.23-1.27.4-2.27.5-1,.1-2.36.15-4.06.15h-3.94c-1.9,0-3.14-.32-3.7-.96-.57-.65-.85-1.84-.85-3.59,0-.26.01-.54.04-.85.03-.31.07-.59.12-.85l1.31-8.96-9.89,1.85-.69,10.35c-.05.57-.16,1.04-.31,1.43-.16.39-.49.69-1.01.93-.51.23-1.27.4-2.27.5-1,.1-2.36.15-4.06.15h-60.56c-1.55,0-2.79-.08-3.74-.23-.96-.16-1.72-.47-2.28-.93-.57-.47-.96-1.08-1.16-1.86-.2-.77-.31-1.78-.31-3.01v-35.53h-8.96v36.08c0,1.34-.31,2.42-.92,3.24-.62.82-1.8,1.47-3.55,1.93s-4.2.77-7.34.92c-3.14.15-7.23.23-12.28.23-4.27,0-7.88-.11-10.82-.35-2.94-.23-5.3-.65-7.11-1.27s-3.1-1.44-3.9-2.46c-.8-1.02-1.2-2.33-1.2-3.92,0-1.02.21-2.22.62-3.57.41-1.36.92-2.91,1.54-4.65l-6.72,1.24c-.87,1.9-1.55,3.87-2.05,5.91-.49,2.04-.73,3.75-.73,5.14,0,4.79,2.42,8.22,7.26,10.31,4.84,2.08,12.07,3.13,21.7,3.13,4.53,0,8.55-.07,12.05-.19,3.5-.13,6.56-.48,9.19-1.05,2.63-.57,4.85-1.48,6.68-2.72,1.83-1.25,3.36-3.01,4.6-5.3.16.93.48,1.91.97,2.92.49,1.01,1.13,1.92,1.93,2.73.8.81,1.75,1.47,2.86,1.99.86.4,1.83.6,2.87.69.11.01.13.09.26.09h62.49c1.13,0,2.11-.09,2.94-.27.83-.18,1.59-.5,2.28-.97s1.35-1.13,1.97-2.01c.62-.88,1.28-2.01,2.01-3.4.52,2.63,1.65,4.39,3.4,5.29,1.75.9,4.09,1.35,7.03,1.35h5.64c1.13,0,2.11-.09,2.94-.27.83-.18,1.59-.5,2.28-.97s1.35-1.13,1.97-2.01c.62-.88,1.28-2.01,2.01-3.4.52,2.63,1.65,4.39,3.4,5.29,1.75.9,4.09,1.35,7.03,1.35h3.47c6.9,0,11.71-.26,14.45-.77v-50.28h-8.88v41.25Z"/>
          <path d="M574.36,159.79l-8.57,2.63c1.8,3.55,3.11,6.36,3.94,8.42.82,2.06,1.23,3.5,1.23,4.33,0,.36-.01.66-.04.89s-.09.5-.19.81c-.62.16-1.55.26-2.78.31-1.24.05-2.24.08-3.02.08h-4.4c-1.91,0-3.15-.32-3.71-.96-.57-.65-.85-1.84-.85-3.59,0-.26.01-.54.04-.85.03-.31.07-.59.12-.85l1.31-8.96-9.89,1.85-.69,10.35c-.05.62-.14,1.12-.27,1.51-.13.39-.37.69-.73.93-.36.23-.89.38-1.59.46-.69.08-1.63.11-2.82.11h-2.63c-.98,0-1.78-.09-2.39-.27s-1.19-.63-1.74-1.35c-.54-.72-1.12-1.78-1.74-3.17s-1.39-3.29-2.32-5.72l-9.03,4.17c.51.82,1.04,1.75,1.58,2.78.54,1.03,1.03,2.11,1.47,3.24.44,1.13.79,2.29,1.04,3.48.26,1.18.39,2.37.39,3.55,0,1.34-.24,2.64-.73,3.9-.49,1.26-1.3,2.37-2.43,3.32-1.13.95-2.63,1.71-4.48,2.28-1.86.57-4.15.85-6.88.85-1.7,0-3.3-.19-4.79-.58-1.49-.39-2.81-.97-3.94-1.74-1.13-.77-2.02-1.74-2.66-2.9-.64-1.16-.96-2.48-.96-3.98,0-2.99.74-6.02,2.24-9.12l-7.64-3.32c-1.24,2.06-2.16,4.27-2.78,6.64-.62,2.37-.93,4.63-.93,6.79,0,2.73.48,5.19,1.43,7.38.95,2.19,2.32,4.05,4.1,5.6,1.78,1.54,3.93,2.74,6.45,3.59,2.52.85,5.33,1.28,8.42,1.28,2.83,0,5.56-.41,8.19-1.24s4.98-2.1,7.07-3.82c2.08-1.73,3.82-3.95,5.22-6.68,1.39-2.73,2.24-6,2.54-9.81.47,1.44,1.23,2.52,2.28,3.24,1.06.72,2.15,1.08,3.28,1.08h1.54c1.13,0,2.11-.09,2.94-.27s1.59-.5,2.28-.97c.69-.46,1.35-1.13,1.97-2.01.62-.88,1.29-2.01,2.01-3.4.51,2.63,1.65,4.39,3.4,5.29s4.1,1.35,7.03,1.35h4.95c1.59,0,3.04-.05,4.32-.15,1.29-.1,2.81-.31,4.56-.62,1.03-1.7,1.9-3.33,2.62-4.9.72-1.57,1.08-3.46,1.08-5.68s-.31-4.76-.92-7.34c-.62-2.58-1.44-5.33-2.47-8.27Z"/>
          <path d="M770.09,169.68c-.77-2.01-2.08-4.11-3.94-6.3-1.86-2.19-4.35-4.41-7.49-6.68-3.14-2.27-7.05-4.48-11.74-6.64-.88.57-1.61,1.39-2.2,2.47-.59,1.08-.88,2.14-.88,3.17,0,.41-.28.9-.81,1.47-.54.57-1.15,1.13-1.82,1.7-.83.72-1.71,1.62-2.66,2.7-.96,1.08-1.83,2.26-2.63,3.52s-1.46,2.57-1.97,3.94c-.51,1.37-.77,2.69-.77,3.98,0,.67.05,1.38.15,2.12.1.75.28,1.46.54,2.12h-120.96c-.1-2.21-.39-4.43-.88-6.64-.49-2.22-1.16-4.21-2.01-5.99-.85-1.78-1.91-3.21-3.17-4.29-1.26-1.08-2.69-1.62-4.28-1.62-2.22,0-4.25.66-6.1,1.97-1.86,1.31-3.47,2.94-4.83,4.87-1.36,1.93-2.42,3.97-3.17,6.1-.75,2.14-1.12,4.03-1.12,5.68,0,.77.14,1.7.43,2.78.28,1.08.83,2.11,1.62,3.09.8.98,1.96,1.82,3.48,2.51,1.51.69,3.51,1.04,5.98,1.04h6.49c-.93,3.4-3.12,6.35-6.57,8.84-3.45,2.5-8.06,4.98-13.83,7.46l5.25,8.5c4.17-2.06,7.64-4.29,10.39-6.68,2.75-2.39,4.97-4.72,6.64-6.99,1.68-2.27,2.91-4.38,3.71-6.34.8-1.96,1.35-3.55,1.66-4.79h156.57l1.85-9.19c.1-.36.17-.77.2-1.24.03-.47.04-.85.04-1.16,0-1.65-.39-3.47-1.16-5.48ZM599.46,177.25c-2.31,0-3.89-.35-4.71-1.04-.82-.69-1.23-1.56-1.23-2.59,0-.77.16-1.53.5-2.28.33-.74.77-1.41,1.32-2.01.54-.59,1.17-1.08,1.89-1.47.72-.39,1.47-.58,2.24-.58.98,0,1.86.34,2.63,1.01s1.43,1.5,1.97,2.51c.54,1,.96,2.08,1.24,3.24.28,1.16.43,2.23.43,3.21h-6.26ZM749.85,174.2c-.41.95-1.11,1.97-2.08,3.05h-2.16c-4.43,0-6.65-1.44-6.65-4.32,0-.93.21-1.93.62-3.02.41-1.08.92-2.09,1.54-3.05.62-.95,1.27-1.74,1.93-2.36.67-.62,1.28-.93,1.86-.93.67,0,1.34.29,2.01.85.67.57,1.26,1.26,1.78,2.09.51.82.94,1.68,1.27,2.59.33.9.5,1.69.5,2.36,0,.88-.2,1.79-.62,2.74ZM764.22,177.25h-9.65c.41-1.13.68-2.28.81-3.43.13-1.16.2-2.02.2-2.59,0-.93-.21-2.07-.62-3.44-.41-1.36-1.15-2.79-2.24-4.29,2.37,1.08,4.33,2.18,5.87,3.28,1.55,1.11,2.75,2.16,3.63,3.17.88,1.01,1.49,1.91,1.86,2.7.36.8.54,1.4.54,1.82,0,1.08-.12,2.01-.39,2.78Z"/>
        </g>
      </g>
    </g>
  </g>
</svg>